SplineFontDB: 3.0
FontName: Corben-Regular
FullName: Corben Regular
FamilyName: Corben
Weight: Regular
Copyright: Copyright (c) 2010, 2011 by vernon adams (vern@newtypography.co.uk), with Reserved Font Name Corben.
Version: 1.100
ItalicAngle: 0
UnderlinePosition: -103
UnderlineWidth: 102
Ascent: 1638
Descent: 410
sfntRevision: 0x00010000
LayerCount: 2
Layer: 0 0 "Back"  1
Layer: 1 0 "Fore"  0
XUID: [1021 14 500265001 14938298]
FSType: 0
OS2Version: 2
OS2_WeightWidthSlopeOnly: 0
OS2_UseTypoMetrics: 1
CreationTime: 1317818700
ModificationTime: 1318246230
PfmFamily: 17
TTFWeight: 400
TTFWidth: 5
LineGap: 0
VLineGap: 0
Panose: 2 15 5 3 2 0 0 2 0 4
OS2TypoAscent: 2826
OS2TypoAOffset: 0
OS2TypoDescent: -969
OS2TypoDOffset: 0
OS2TypoLinegap: 0
OS2WinAscent: 2826
OS2WinAOffset: 0
OS2WinDescent: 969
OS2WinDOffset: 0
HheadAscent: 2826
HheadAOffset: 0
HheadDescent: -969
HheadDOffset: 0
OS2SubXSize: 1434
OS2SubYSize: 1331
OS2SubXOff: 0
OS2SubYOff: 287
OS2SupXSize: 1434
OS2SupYSize: 1331
OS2SupXOff: 0
OS2SupYOff: 977
OS2StrikeYSize: 102
OS2StrikeYPos: 512
OS2Vendor: 'newt'
OS2CodePages: 00000001.00000000
OS2UnicodeRanges: 8000006f.4000000b.00000000.00000000
Lookup: 4 0 1 "'liga' Standard Ligatures in Latin lookup 0"  {"'liga'"  } ['liga' ('DFLT' <'dflt' > 'latn' <'dflt' > ) ]
Lookup: 258 0 0 "'kern' Horizontal Kerning in Latin lookup 0"  {"'kern'" [344,0,2] } ['kern' ('DFLT' <'dflt' > 'latn' <'dflt' > ) ]
MarkAttachClasses: 1
DEI: 91125
KernClass2: 6 6 "'kern'" 
 1 A
 3 T V
 1 W
 3 v w
 1 G
 1 a
 7 c e o q
 1 d
 3 c_k
 1 O
 0 {} 0 {} 0 {} 0 {} 0 {} 0 {} 0 {} 0 {} 0 {} 0 {} 0 {} -95 {} 0 {} -173 {} -138 {} -171 {} -210 {} -73 {} 0 {} -256 {} -209 {} -245 {} -211 {} -131 {} 0 {} 0 {} 0 {} 0 {} 0 {} 0 {} 0 {} 0 {} 0 {} 0 {} 0 {} 50 {}
ShortTable: maxp 16
  1
  0
  267
  171
  6
  172
  4
  1
  0
  0
  0
  0
  0
  0
  3
  1
EndShort

StartChar: ffi
Encoding: 346 64259 0
Width: 2080
Flags: HMW
LayerCount: 2
Fore
SplineSet
1497 863 m 0
 1497 933 1605 964 1710 964 c 0
 1785 964 1865 956 1865 888 c 2
 1865 282 l 2
 1865 270 1865 259 1865 249 c 0
 1865 136 1923 146 2000 116 c 0
 2014 111 2020 99 2020 82 c 0
 2020 7 1938 1 1837 1 c 0
 1815 1 1791 1 1768 1 c 0
 1750 1 1732 1 1715 1 c 0
 1603 1 1519 6 1519 90 c 0
 1519 121 1653 165 1663 182 c 1
 1669 199 1672 232 1672 282 c 2
 1672 644 l 2
 1672 791 1652 802 1556 828 c 0
 1516 839 1497 850 1497 863 c 0
1045 1355 m 1
 1130 1423 1251 1456 1385 1456 c 0
 1621 1456 1873 1421 1873 1251 c 0
 1873 1170 1829 1129 1740 1129 c 0
 1678 1129 1637 1185 1637 1234 c 0
 1637 1261 1646 1285 1663 1305 c 1
 1614 1351 1511 1373 1396 1373 c 0
 1222 1373 1091 1291 1091 1122 c 0
 1091 1073 1100 1021 1118 964 c 1
 1260 964 l 2
 1308 964 1332 949 1332 920 c 0
 1332 873 1297 836 1263 836 c 2
 1115 836 l 1
 1115 282 l 2
 1115 172 1151 125 1227 125 c 1
 1251 118 1270 115 1270 82 c 0
 1270 3 1170 1 1073 1 c 0
 1069 1 1064 1 1060 1 c 0
 1025 1 986 -1 948 -1 c 0
 855 -1 772 11 772 90 c 0
 772 120 902 162 913 182 c 1
 919 212 922 245 922 282 c 2
 922 835 l 1
 755 835 573 836 397 836 c 1
 397 191 l 2
 397 98 526 157 526 78 c 0
 526 1 431 0 340 0 c 0
 312 0 283 -1 254 -1 c 0
 163 -1 78 8 78 84 c 0
 78 156 207 97 207 191 c 2
 207 833 l 1
 137 833 l 2
 101 833 76 862 76 896 c 0
 76 960 111 962 184 962 c 2
 207 962 l 1
 207 1109 l 2
 207 1343 382 1469 656 1469 c 0
 798 1469 977 1433 1045 1355 c 1
954 1245 m 1
 880 1286 782 1358 654 1358 c 0
 453 1358 353 1295 353 1170 c 0
 353 1090 368 1021 397 962 c 1
 874 962 l 1
 889 963 906 964 924 964 c 1
 920 994 918 1034 918 1082 c 0
 918 1145 931 1198 954 1245 c 1
EndSplineSet
LCarets2: 2 0 0 
Ligature2: "'liga'" f f i
EndChar

StartChar: numbersign
Encoding: 5 35 4
Width: 1418
Flags: HMW
LayerCount: 2
Fore
SplineSet
-2 506 m 256
 -2 557 32 585 83 585 c 2
 286 585 l 1
 386 1030 l 1
 188 1030 l 2
 134 1030 107 1055 107 1106 c 256
 107 1157 141 1185 192 1185 c 2
 421 1185 l 1
 529 1666 l 1
 537 1718 571 1762 623 1762 c 256
 663 1762 700 1726 700 1686 c 128
 700 1666 699 1651 697 1640 c 2
 598 1185 l 1
 1021 1185 l 1
 1129 1666 l 1
 1138 1717 1172 1762 1224 1762 c 128
 1263 1762 1300 1726 1300 1686 c 128
 1300 1666 1299 1651 1297 1640 c 2
 1198 1185 l 1
 1362 1185 l 2
 1408 1185 1444 1162 1444 1115 c 0
 1444 1058 1416 1030 1359 1030 c 2
 1163 1030 l 1
 1063 585 l 1
 1253 585 l 2
 1299 585 1335 562 1335 515 c 0
 1335 458 1307 430 1250 430 c 2
 1028 430 l 1
 933 -6 l 2
 922 -59 887 -105 832 -105 c 128
 793 -105 755 -71 755 -33 c 128
 755 -14 756 0 758 10 c 2
 852 430 l 1
 428 430 l 1
 333 -6 l 1
 324 -59 289 -106 235 -106 c 256
 196 -106 155 -71 155 -33 c 128
 155 -14 156 0 158 10 c 2
 252 430 l 1
 79 430 l 2
 25 430 -2 455 -2 506 c 256
463 585 m 1
 886 585 l 1
 986 1030 l 1
 563 1030 l 1
 463 585 l 1
EndSplineSet
EndChar

StartChar: dollar
Encoding: 6 36 5
Width: 1095
Flags: HMW
LayerCount: 2
Fore
SplineSet
866 921 m 128
 865 921 l 0
 807 921 796 922 796 980 c 128
 796 1094 735 1166 649 1196 c 1
 608 813 l 1
 755 769 853 731 903 700 c 128
 983 650 1057 585 1057 470 c 128
 1057 372 1022 315 972 266 c 128
 884 180 725 125 559 125 c 2
 534 125 l 1
 515 -59 l 1
 515 -99 509 -126 496 -140 c 128
 483 -154 471 -161 458 -161 c 0
 433 -161 420 -144 420 -108 c 128
 420 -31 436 59 444 131 c 1
 346 140 270 156 215 179 c 128
 160 202 122 223 102 240 c 128
 82 257 71 274 71 291 c 0
 71 294 75 302 82 318 c 0
 104 368 115 435 115 517 c 0
 115 546 134 574 162 574 c 128
 193 574 204 529 213 500 c 128
 229 448 244 395 274 352 c 0
 315 294 376 258 456 243 c 1
 501 653 l 1
 360 694 269 727 228 752 c 128
 138 807 70 875 70 999 c 0
 70 1135 158 1228 335 1278 c 0
 401 1297 473 1306 550 1306 c 2
 560 1306 l 2
 564 1306 568 1306 572 1305 c 1
 602 1575 l 2
 605 1602 625 1633 652 1633 c 128
 672 1633 691 1616 691 1596 c 128
 691 1586 691 1578 690 1575 c 2
 660 1295 l 1
 814 1266 922 1212 982 1133 c 0
 1004 1104 1015 1074 1015 1044 c 128
 1015 986 990 962 952 944 c 0
 920 929 891 921 866 921 c 128
559 234 m 2
 748 234 843 295 843 417 c 0
 843 493 792 551 688 592 c 0
 657 604 623 616 588 627 c 1
 546 234 l 1
 559 234 l 2
519 1212 m 130
 428 1212 337 1170 295 1115 c 128
 278 1092 269 1067 269 1038 c 128
 269 975 301 942 342 915 c 0
 382 888 442 863 521 839 c 1
 562 1211 l 1
 557 1212 553 1212 549 1212 c 130
 519 1212 l 130
EndSplineSet
EndChar

StartChar: percent
Encoding: 7 37 6
Width: 1955
Flags: HMW
LayerCount: 2
Fore
SplineSet
1389 1636 m 0
 1419 1636 1432 1611 1432 1578 c 128
 1432 1559 1426 1536 1413 1510 c 2
 662 -32 l 2
 637 -84 608 -110 575 -110 c 0
 550 -110 533 -86 533 -61 c 0
 533 -35 539 -9 552 16 c 2
 1302 1558 l 2
 1327 1610 1356 1636 1389 1636 c 0
768 1065 m 0
 768 833 599 667 368 667 c 0
 250 667 164 716 106 781 c 0
 40 855 6 949 6 1062 c 0
 6 1289 174 1449 404 1449 c 0
 621 1449 768 1284 768 1065 c 0
372 1366 m 0
 231 1366 166 1233 166 1080 c 0
 166 913 251 754 402 754 c 0
 544 754 615 887 615 1037 c 0
 615 1205 531 1366 372 1366 c 0
1920 396 m 0
 1920 164 1751 -2 1520 -2 c 0
 1402 -2 1316 47 1258 112 c 0
 1192 186 1158 280 1158 393 c 0
 1158 620 1326 780 1556 780 c 0
 1773 780 1920 615 1920 396 c 0
1524 697 m 0
 1383 697 1318 563 1318 410 c 0
 1318 243 1403 85 1554 85 c 0
 1696 85 1767 218 1767 368 c 0
 1767 536 1683 697 1524 697 c 0
EndSplineSet
EndChar

StartChar: ampersand
Encoding: 8 38 7
Width: 1564
Flags: HMW
LayerCount: 2
Fore
SplineSet
1159 794 m 1
 1014 781 954 756 905 667 c 1
 808 737 l 1
 840 865 923 946 1056 978 c 0
 1124 994 1316 1014 1376 1036 c 0
 1440 1059 1477 1100 1487 1159 c 1
 1608 1094 l 1
 1588 1029 1569 970 1527 922 c 0
 1473 861 1385 824 1264 810 c 1
 1331 691 1365 572 1365 454 c 0
 1365 292 1305 160 1184 56 c 0
 1059 -52 891 -106 680 -106 c 0
 342 -106 66 37 66 355 c 0
 66 484 128 590 252 672 c 0
 295 701 346 725 406 745 c 1
 406 746 l 1
 280 778 147 874 147 1020 c 128
 147 1149 223 1232 306 1286 c 0
 400 1347 506 1377 626 1377 c 0
 800 1377 962 1303 962 1140 c 0
 962 1101 946 1070 913 1047 c 0
 886 1028 860 1018 835 1018 c 0
 792 1018 755 1019 724 1022 c 1
 728 1048 730 1074 730 1100 c 128
 730 1221 662 1301 547 1301 c 0
 415 1301 327 1178 327 1040 c 0
 327 938 366 867 443 828 c 0
 469 815 495 809 522 809 c 128
 568 809 598 782 598 742 c 128
 598 699 567 683 516 683 c 128
 442 683 382 636 346 591 c 0
 299 533 276 467 276 393 c 0
 276 264 356 179 516 138 c 0
 572 124 643 117 730 117 c 128
 1015 117 1233 231 1233 501 c 0
 1233 591 1208 688 1159 794 c 1
EndSplineSet
EndChar

StartChar: quotesingle
Encoding: 9 39 8
Width: 391
Flags: HMW
LayerCount: 2
Fore
SplineSet
90 1323 m 1
 90 1393 124 1450 195 1450 c 256
 264 1450 301 1389 301 1331 c 1
 231 889 l 1
 229 866 216 841 194 841 c 0
 174 841 163 856 160 885 c 1
 90 1323 l 1
EndSplineSet
EndChar

StartChar: parenleft
Encoding: 10 40 9
Width: 606
Flags: HMW
LayerCount: 2
Fore
SplineSet
585 -92 m 0
 530 -92 451 -46 348 45 c 0
 233 147 149 273 100 425 c 0
 74 504 62 589 62 680 c 256
 62 1029 273 1303 515 1433 c 0
 538 1446 561 1452 585 1452 c 0
 622 1452 641 1438 641 1411 c 0
 641 1386 617 1358 570 1328 c 128
 391 1213 279 975 279 692 c 0
 279 476 336 296 448 150 c 0
 485 102 520 66 556 42 c 0
 612 4 641 -27 641 -53 c 128
 641 -79 622 -92 585 -92 c 0
EndSplineSet
EndChar

StartChar: parenright
Encoding: 11 41 10
Width: 612
Flags: HMW
LayerCount: 2
Fore
SplineSet
30 1452 m 0
 85 1452 165 1406 268 1315 c 0
 383 1213 465 1087 514 935 c 0
 540 856 553 771 553 680 c 256
 553 331 342 57 100 -73 c 0
 77 -86 54 -92 30 -92 c 0
 -7 -92 -26 -78 -26 -51 c 0
 -26 -27 -3 1 43 32 c 128
 222 153 336 405 336 692 c 0
 336 898 280 1072 170 1212 c 0
 133 1259 97 1294 60 1318 c 0
 3 1355 -26 1387 -26 1413 c 128
 -26 1439 -7 1452 30 1452 c 0
EndSplineSet
EndChar

StartChar: asterisk
Encoding: 12 42 11
Width: 1185
Flags: HMW
LayerCount: 2
Fore
SplineSet
589 1478 m 128
 654 1478 708 1434 708 1368 c 128
 708 1298 687 1248 666 1197 c 0
 634 1119 615 1061 609 1023 c 1
 587 1016 l 1
 570 1022 l 1
 570 1028 l 1
 564 1055 552 1097 532 1152 c 0
 498 1249 481 1311 481 1340 c 128
 481 1422 515 1478 589 1478 c 128
199 633 m 0
 134 633 80 673 80 746 c 128
 80 792 135 821 172 840 c 128
 250 879 410 927 509 927 c 2
 516 927 l 1
 545 916 l 1
 481 846 l 2
 352 704 258 633 199 633 c 0
696 1043 m 1
 780 1135 854 1199 920 1236 c 0
 946 1250 968 1258 985 1258 c 128
 1054 1258 1103 1227 1103 1162 c 1
 1092 1143 l 1
 1092 1138 l 1
 1098 1138 l 1
 1096 1082 1034 1042 912 1017 c 0
 879 1010 848 1004 817 999 c 2
 788 994 l 2
 730 984 692 974 674 965 c 1
 645 992 l 1
 696 1043 l 1
479 566 m 0
 479 605 500 674 541 775 c 1
 565 823 577 857 577 877 c 1
 590 882 l 1
 608 876 638 798 680 649 c 0
 696 594 704 559 704 545 c 0
 704 466 664 426 585 426 c 0
 514 426 479 473 479 566 c 0
1098 749 m 128
 1098 683 1048 628 990 628 c 128
 931 628 894 656 860 685 c 0
 829 712 793 749 751 798 c 1
 734 823 717 842 702 856 c 1
 702 855 l 1
 690 862 674 875 653 896 c 1
 653 895 l 2
 652 895 651 896 648 899 c 1
 648 914 l 1
 674 927 l 1
 737 906 817 892 885 877 c 2
 931 867 l 2
 965 859 968 861 1011 850 c 1
 1011 841 l 1
 1057 836 1098 785 1098 749 c 128
80 1152 m 128
 80 1217 122 1268 180 1268 c 128
 292 1268 348 1180 403 1121 c 1
 428 1095 l 1
 460 1059 485 1035 504 1022 c 1
 540 994 l 1
 507 972 l 1
 470 987 440 987 387 998 c 128
 287 1018 171 1037 109 1094 c 128
 90 1112 80 1132 80 1152 c 128
EndSplineSet
EndChar

StartChar: plus
Encoding: 13 43 12
Width: 795
Flags: HMW
LayerCount: 2
Fore
SplineSet
481 321 m 2
 481 263 463 233 404 233 c 256
 350 233 323 264 323 325 c 2
 323 551 l 1
 103 551 l 2
 34 551 15 568 15 631 c 0
 15 672 46 693 107 693 c 2
 323 693 l 1
 323 920 l 2
 323 981 347 1011 395 1011 c 0
 460 1011 481 982 481 917 c 2
 481 693 l 1
 698 693 l 2
 764 693 789 678 789 616 c 128
 789 564 752 551 695 551 c 2
 481 551 l 1
 481 321 l 2
EndSplineSet
EndChar

StartChar: comma
Encoding: 14 44 13
Width: 459
Flags: HMW
LayerCount: 2
Fore
SplineSet
375 99 m 1
 375 -18 291 -120 178 -120 c 0
 152 -120 139 -112 139 -97 c 0
 139 -77 160 -66 172 -54 c 0
 195 -32 206 -5 207 27 c 1
 144 30 90 55 90 118 c 128
 90 191 166 225 236 225 c 0
 320 225 367 183 375 99 c 1
EndSplineSet
EndChar

StartChar: hyphen
Encoding: 15 45 14
Width: 778
Flags: HMW
LayerCount: 2
Fore
SplineSet
597 585 m 2
 643 585 679 562 679 515 c 0
 679 458 651 430 594 430 c 2
 183 430 l 2
 129 430 102 455 102 506 c 256
 102 557 136 585 187 585 c 2
 597 585 l 2
EndSplineSet
EndChar

StartChar: period
Encoding: 16 46 15
Width: 460
Flags: HMW
LayerCount: 2
Fore
SplineSet
224 233 m 128
 297 233 376 187 376 128 c 128
 376 59 336 25 285 8 c 128
 268 2 252 0 236 0 c 128
 163 0 95 47 95 112 c 256
 95 146 110 176 142 200 c 0
 172 222 199 233 224 233 c 128
EndSplineSet
EndChar

StartChar: slash
Encoding: 17 47 16
Width: 652
Flags: HMW
LayerCount: 2
Fore
SplineSet
196 -87 m 2
 183 -127 170 -168 125 -168 c 128
 106 -168 82 -164 56 -156 c 0
 6 -140 -18 -116 -18 -83 c 0
 -18 -72 -14 -52 -6 -25 c 2
 495 1597 l 2
 507 1639 523 1679 576 1679 c 128
 622 1679 657 1666 680 1646 c 0
 699 1629 708 1614 708 1599 c 0
 708 1575 705 1554 698 1535 c 2
 196 -87 l 2
EndSplineSet
EndChar

StartChar: zero
Encoding: 18 48 17
Width: 1529
Flags: HMW
LayerCount: 2
Fore
SplineSet
774 111 m 0
 1001 111 1130 245 1196 408 c 0
 1230 493 1247 586 1247 686 c 0
 1247 852 1205 996 1120 1116 c 0
 1027 1248 902 1313 744 1313 c 0
 595 1313 479 1254 394 1136 c 0
 318 1030 279 900 279 743 c 0
 279 574 321 430 405 310 c 0
 498 177 621 111 774 111 c 0
757 -25 m 256
 533 -25 358 48 232 196 c 0
 117 331 60 496 60 689 c 0
 60 888 120 1060 240 1206 c 0
 321 1304 427 1373 556 1413 c 0
 621 1433 692 1443 771 1443 c 128
 1091 1443 1292 1292 1396 1076 c 0
 1447 971 1472 856 1472 732 c 0
 1472 532 1412 360 1291 214 c 0
 1208 114 1102 44 973 5 c 0
 907 -15 835 -25 757 -25 c 256
EndSplineSet
EndChar

StartChar: one
Encoding: 19 49 18
Width: 605
Flags: HMW
LayerCount: 2
Fore
SplineSet
348 1442 m 128
 423 1442 428 1416 428 1343 c 0
 428 1333 428 1322 428 1311 c 2
 428 177 l 2
 428 146 478 138 507 132 c 128
 540 125 586 120 586 83 c 128
 586 41 551 21 514 12 c 0
 483 4 419 0 320 0 c 256
 222 0 159 3 131 10 c 0
 78 23 51 49 51 90 c 0
 51 148 212 120 212 177 c 2
 212 1233 l 2
 212 1251 184 1264 130 1272 c 128
 76 1280 49 1290 49 1303 c 0
 49 1361 112 1403 238 1428 c 0
 285 1437 321 1442 348 1442 c 128
EndSplineSet
EndChar

StartChar: two
Encoding: 20 50 19
Width: 1068
Flags: HMW
LayerCount: 2
Fore
SplineSet
595 1491 m 128
 819 1491 960 1358 960 1140 c 0
 960 987 879 816 716 627 c 0
 623 519 529 424 435 342 c 128
 341 260 266 195 207 147 c 1
 490 147 l 2
 581 147 648 147 692 148 c 2
 714 149 l 1
 771 149 818 195 854 288 c 0
 865 316 870 335 870 345 c 2
 870 346 l 1
 951 346 1004 287 1004 193 c 128
 1004 98 954 1 870 1 c 2
 159 1 l 2
 86 1 27 41 27 118 c 128
 27 136 38 157 61 182 c 128
 84 207 118 239 164 280 c 128
 350 445 538 642 665 862 c 0
 721 959 749 1042 749 1108 c 0
 749 1248 677 1322 537 1322 c 256
 422 1322 273 1262 185 1194 c 1
 170 1185 154 1181 138 1181 c 128
 104 1181 72 1197 72 1232 c 128
 72 1250 85 1270 111 1289 c 1
 202 1386 318 1449 460 1478 c 0
 504 1487 549 1491 595 1491 c 128
EndSplineSet
EndChar

StartChar: three
Encoding: 21 51 20
Width: 1150
Flags: HMW
LayerCount: 2
Fore
SplineSet
677 879 m 1
 904 852 1092 708 1092 467 c 0
 1092 313 1035 191 922 101 c 0
 818 18 687 -24 529 -24 c 0
 447 -24 347 -2 228 42 c 0
 144 73 82 110 44 152 c 0
 24 174 14 198 14 224 c 128
 14 250 31 263 66 263 c 0
 85 263 107 253 132 234 c 128
 183 195 213 171 276 146 c 0
 345 119 414 106 486 106 c 128
 624 106 697 138 765 204 c 0
 834 270 868 350 868 441 c 0
 868 649 733 774 524 774 c 0
 466 774 408 761 348 734 c 0
 343 732 336 731 328 731 c 128
 311 731 290 765 290 782 c 0
 290 799 296 811 310 819 c 128
 350 843 414 865 464 889 c 128
 582 945 742 1037 742 1192 c 0
 742 1289 641 1361 542 1361 c 0
 452 1361 356 1332 255 1274 c 0
 216 1252 179 1223 142 1188 c 0
 135 1181 127 1178 116 1178 c 128
 96 1178 68 1206 68 1226 c 128
 68 1236 70 1243 74 1249 c 0
 151 1365 275 1441 446 1477 c 0
 496 1488 544 1493 592 1493 c 128
 804 1493 969 1387 969 1187 c 0
 969 1086 905 1000 776 927 c 0
 742 908 708 892 677 879 c 1
EndSplineSet
EndChar

StartChar: four
Encoding: 22 52 21
Width: 1041
Flags: HMW
LayerCount: 2
Fore
SplineSet
1051 546 m 128
 1051 481 1007 472 934 472 c 2
 786 472 l 1
 786 177 l 2
 786 146 836 138 865 132 c 128
 898 125 944 120 944 83 c 128
 944 41 909 21 872 12 c 0
 841 4 777 0 678 0 c 256
 580 0 517 3 489 10 c 0
 436 23 409 49 409 90 c 0
 409 148 570 120 570 177 c 2
 570 470 l 1
 112 470 l 2
 33 470 -16 502 -16 574 c 0
 -16 598 -10 623 2 647 c 1
 213 962 360 1189 563 1490 c 1
 634 1490 l 2
 679 1490 710 1480 729 1461 c 0
 767 1421 786 1351 786 1249 c 2
 786 611 l 1
 921 611 l 2
 1004 611 1051 605 1051 546 c 128
570 609 m 1
 570 1275 l 1
 472 1108 370 929 290 793 c 0
 250 724 215 663 187 609 c 1
 570 609 l 1
EndSplineSet
EndChar

StartChar: five
Encoding: 23 53 22
Width: 1153
Flags: HMW
LayerCount: 2
Fore
SplineSet
-3 211 m 128
 -3 247 28 283 57 283 c 128
 68 283 88 276 116 262 c 128
 223 209 379 163 532 163 c 128
 646 163 716 189 771 242 c 0
 821 290 846 349 846 420 c 0
 846 506 812 580 744 643 c 0
 668 713 565 748 434 748 c 0
 339 748 234 740 119 723 c 1
 280 1388 l 1
 519 1379 l 1
 764 1379 899 1424 925 1513 c 1
 944 1514 l 1
 1011 1514 1053 1455 1053 1385 c 128
 1053 1262 933 1222 812 1222 c 2
 380 1222 l 1
 307 864 l 1
 386 871 461 875 532 875 c 128
 855 875 1076 716 1076 401 c 0
 1076 133 840 -22 560 -22 c 0
 475 -22 373 -2 255 37 c 0
 182 61 126 86 88 112 c 128
 50 138 26 156 17 168 c 0
 4 185 -3 200 -3 211 c 128
EndSplineSet
EndChar

StartChar: six
Encoding: 24 54 23
Width: 1186
Flags: HMW
LayerCount: 2
Fore
SplineSet
608 119 m 128
 836 119 930 280 930 505 c 0
 930 659 872 760 756 808 c 0
 719 823 677 831 630 831 c 0
 533 831 425 800 306 737 c 1
 294 674 288 614 288 556 c 128
 288 369 334 231 451 158 c 128
 492 132 544 119 608 119 c 128
939 1513 m 1
 970 1513 996 1486 996 1446 c 0
 996 1422 984 1406 961 1399 c 128
 791 1347 641 1282 523 1172 c 0
 436 1091 368 990 319 869 c 1
 429 937 547 971 673 971 c 0
 805 971 913 934 999 858 c 0
 1094 774 1141 654 1141 499 c 0
 1141 165 951 -27 616 -27 c 0
 254 -27 62 231 62 603 c 0
 62 989 283 1238 557 1384 c 0
 672 1445 797 1488 930 1512 c 1
 939 1513 l 1
EndSplineSet
EndChar

StartChar: seven
Encoding: 25 55 24
Width: 874
Flags: HMW
LayerCount: 2
Fore
SplineSet
114 1135 m 128
 30 1135 -27 1182 -27 1267 c 128
 -27 1389 66 1450 188 1450 c 2
 745 1450 l 2
 837 1450 897 1430 897 1356 c 128
 897 1279 857 1235 835 1178 c 2
 391 34 l 1
 370 -7 331 -28 274 -28 c 0
 229 -28 197 -8 178 31 c 0
 172 44 169 55 169 66 c 0
 169 84 172 101 179 116 c 2
 712 1337 l 1
 439 1337 l 2
 265 1337 177 1283 164 1140 c 1
 147 1137 130 1135 114 1135 c 128
EndSplineSet
EndChar

StartChar: eight
Encoding: 26 56 25
Width: 1268
Flags: HMW
LayerCount: 2
Fore
SplineSet
276 341 m 0
 276 197 458 126 617 126 c 0
 763 126 872 165 934 235 c 128
 959 263 971 298 971 341 c 128
 971 438 907 500 846 544 c 128
 777 594 686 636 608 676 c 1
 531 646 458 597 389 530 c 0
 314 457 276 394 276 341 c 0
558 1358 m 0
 406 1347 339 1279 339 1138 c 128
 339 1088 372 1033 398 1002 c 128
 446 944 519 899 590 866 c 128
 611 856 628 847 642 840 c 1
 704 882 780 926 836 976 c 0
 906 1039 941 1107 941 1178 c 0
 941 1301 844 1362 649 1362 c 0
 621 1362 591 1360 558 1358 c 0
1115 1160 m 0
 1115 1017 1010 886 800 767 c 1
 990 690 1119 595 1185 483 c 0
 1209 442 1221 398 1221 350 c 128
 1221 143 1074 49 908 8 c 0
 830 -11 756 -21 686 -21 c 128
 457 -21 288 7 172 120 c 0
 109 182 78 263 78 362 c 0
 78 444 120 521 204 595 c 0
 273 655 362 707 471 752 c 1
 366 796 281 853 217 924 c 0
 154 995 122 1070 122 1149 c 0
 122 1301 214 1405 400 1461 c 0
 471 1482 535 1493 591 1493 c 128
 742 1493 839 1473 940 1423 c 128
 1036 1376 1115 1284 1115 1160 c 0
EndSplineSet
EndChar

StartChar: nine
Encoding: 27 57 26
Width: 1165
Flags: HMW
LayerCount: 2
Fore
SplineSet
566 1367 m 128
 353 1367 214 1232 214 1033 c 0
 214 939 244 859 305 792 c 0
 371 719 461 683 574 683 c 0
 676 683 773 705 865 749 c 1
 877 812 883 872 883 930 c 128
 883 1117 837 1255 720 1328 c 128
 679 1354 627 1367 566 1367 c 128
232 -27 m 1
 201 -27 175 0 175 40 c 0
 175 64 187 80 210 87 c 128
 383 140 537 213 655 328 c 0
 745 415 814 521 862 647 c 1
 766 585 661 554 547 554 c 0
 256 554 30 734 30 1017 c 0
 30 1237 127 1388 321 1468 c 0
 393 1498 469 1513 547 1513 c 128
 720 1513 850 1458 942 1366 c 0
 1054 1255 1109 1094 1109 883 c 0
 1109 497 888 248 614 102 c 0
 494 38 370 -4 241 -26 c 1
 232 -27 l 1
EndSplineSet
EndChar

StartChar: colon
Encoding: 28 58 27
Width: 495
Flags: HMW
LayerCount: 2
Fore
SplineSet
241 984 m 128
 314 984 393 938 393 879 c 128
 393 810 353 777 302 760 c 128
 285 754 270 751 254 751 c 128
 181 751 112 798 112 863 c 256
 112 897 128 926 160 950 c 0
 190 972 216 984 241 984 c 128
241 416 m 128
 314 416 393 370 393 311 c 128
 393 242 353 209 302 192 c 128
 285 186 270 183 254 183 c 128
 181 183 112 230 112 295 c 256
 112 329 128 358 160 382 c 0
 190 404 216 416 241 416 c 128
EndSplineSet
EndChar

StartChar: semicolon
Encoding: 29 59 28
Width: 503
Flags: HMW
LayerCount: 2
Fore
SplineSet
397 290 m 1
 397 173 313 71 200 71 c 0
 174 71 161 79 161 94 c 0
 161 114 182 125 194 137 c 0
 217 159 228 186 229 218 c 1
 166 221 112 245 112 308 c 128
 112 381 188 416 258 416 c 0
 342 416 389 374 397 290 c 1
244 984 m 128
 317 984 396 938 396 879 c 128
 396 810 356 777 305 760 c 128
 288 754 272 751 256 751 c 128
 183 751 115 798 115 863 c 256
 115 897 130 926 162 950 c 0
 192 972 219 984 244 984 c 128
EndSplineSet
EndChar

StartChar: less
Encoding: 30 60 29
Width: 732
Flags: HMW
LayerCount: 2
Fore
SplineSet
559 928 m 128
 602 928 640 904 640 866 c 128
 640 851 632 834 618 816 c 128
 563 745 478 674 404 617 c 0
 343 570 297 539 267 522 c 1
 315 496 371 454 434 397 c 128
 497 340 540 300 563 276 c 128
 586 252 604 230 618 211 c 128
 632 192 640 174 640 158 c 128
 640 125 605 96 571 96 c 128
 553 96 528 105 496 122 c 128
 378 184 251 282 157 372 c 0
 80 445 42 495 42 522 c 0
 42 547 80 594 157 664 c 0
 219 721 283 772 349 815 c 0
 463 890 533 928 559 928 c 128
EndSplineSet
EndChar

StartChar: equal
Encoding: 31 61 30
Width: 1264
Flags: HMW
LayerCount: 2
Fore
SplineSet
1021 672 m 2
 1100 672 1148 659 1148 592 c 128
 1148 508 1104 492 1012 492 c 2
 256 492 l 2
 179 492 130 510 130 571 c 128
 130 663 181 672 278 672 c 2
 1021 672 l 2
1020 362 m 2
 1099 362 1143 349 1143 280 c 128
 1143 236 1126 207 1096 194 c 0
 1079 186 1042 183 985 183 c 2
 259 183 l 2
 178 183 125 196 125 259 c 128
 125 351 176 362 273 362 c 2
 1020 362 l 2
EndSplineSet
EndChar

StartChar: greater
Encoding: 32 62 31
Width: 728
Flags: HMW
LayerCount: 2
Fore
SplineSet
175 96 m 128
 132 96 94 120 94 158 c 128
 94 174 102 192 116 211 c 128
 172 286 256 361 330 422 c 0
 385 468 431 501 467 522 c 1
 382 568 283 646 171 755 c 0
 120 805 94 839 94 859 c 128
 94 897 126 928 163 928 c 128
 181 928 206 920 238 904 c 128
 315 866 394 809 465 756 c 128
 530 707 692 571 692 522 c 0
 692 495 654 445 577 372 c 0
 512 310 447 257 383 213 c 0
 270 135 201 96 175 96 c 128
EndSplineSet
EndChar

StartChar: question
Encoding: 33 63 32
Width: 770
Flags: HMW
LayerCount: 2
Fore
SplineSet
330 -9 m 0
 249 -9 209 51 209 110 c 0
 209 167 246 223 321 223 c 128
 405 223 443 167 443 110 c 0
 443 51 402 -9 330 -9 c 0
30 1142 m 128
 30 1244 235 1287 328 1287 c 128
 536 1287 710 1200 710 1009 c 0
 710 845 561 774 470 688 c 0
 394 616 378 553 366 450 c 128
 362 420 353 378 329 378 c 0
 302 378 288 412 288 479 c 128
 288 695 371 767 474 872 c 0
 517 916 539 962 539 1008 c 0
 539 1091 477 1133 352 1133 c 0
 295 1133 230 1115 159 1076 c 0
 143 1067 126 1062 106 1062 c 128
 64 1062 30 1100 30 1142 c 128
EndSplineSet
EndChar

StartChar: at
Encoding: 34 64 33
Width: 1583
Flags: HMW
LayerCount: 2
Fore
SplineSet
1072 993 m 128
 1130 993 1157 957 1157 901 c 2
 1157 438 l 2
 1157 377 1184 347 1237 347 c 0
 1306 347 1350 426 1370 586 c 0
 1376 637 1379 690 1379 745 c 128
 1379 975 1247 1104 1080 1168 c 0
 993 1201 897 1218 792 1218 c 0
 644 1218 512 1166 395 1061 c 0
 317 991 262 904 230 798 c 0
 214 745 205 678 205 596 c 128
 205 419 286 267 384 180 c 0
 490 86 634 39 814 39 c 128
 994 39 1169 93 1339 200 c 1
 1340 200 l 2
 1346 200 1364 172 1395 115 c 1
 1208 -16 1005 -81 786 -81 c 0
 580 -81 410 -22 276 96 c 0
 131 223 58 396 58 615 c 0
 58 919 235 1136 450 1246 c 0
 561 1303 669 1331 775 1331 c 128
 1115 1331 1341 1238 1458 1022 c 0
 1502 940 1524 852 1524 760 c 128
 1524 592 1497 470 1434 374 c 0
 1378 289 1305 246 1217 246 c 128
 1129 246 1063 279 1019 346 c 1
 920 273 821 236 723 236 c 0
 520 236 388 402 388 611 c 0
 388 829 512 1015 719 1015 c 128
 815 1015 911 989 1007 937 c 1
 1007 968 1042 993 1072 993 c 128
545 608 m 0
 545 456 603 340 750 340 c 128
 819 340 900 364 993 411 c 1
 992 430 992 449 992 470 c 2
 992 600 l 1
 990 775 l 1
 990 815 l 1
 991 838 l 1
 895 877 812 896 744 896 c 0
 611 896 545 800 545 608 c 0
EndSplineSet
EndChar

StartChar: A
Encoding: 35 65 34
Width: 1490
Flags: HMW
LayerCount: 2
Fore
SplineSet
1472 89 m 128
 1472 20 1362 0 1290 0 c 128
 1286 0 1282 0 1278 0 c 0
 1163 0 1013 2 1013 101 c 0
 1013 137 1120 112 1120 160 c 128
 1120 167 1114 183 1101 208 c 1
 1102 208 l 1
 992 470 l 1
 403 470 l 1
 332 283 296 181 296 164 c 128
 296 147 300 137 309 134 c 1
 308 135 l 1
 328 123 409 116 409 89 c 0
 409 30 334 0 184 0 c 0
 59 0 -3 30 -3 89 c 0
 -3 113 41 118 60 124 c 128
 109 139 141 170 160 221 c 2
 565 1280 l 1
 558 1299 555 1315 555 1327 c 0
 555 1378 607 1404 712 1404 c 0
 804 1404 850 1372 875 1308 c 2
 1297 228 l 1
 1321 170 1358 138 1407 130 c 0
 1447 124 1472 123 1472 89 c 128
442 566 m 1
 952 566 l 1
 692 1280 l 1
 442 566 l 1
EndSplineSet
EndChar

StartChar: B
Encoding: 36 66 35
Width: 1470
Flags: HMW
LayerCount: 2
Fore
SplineSet
1224 389 m 0
 1224 643 968 677 689 677 c 2
 463 677 l 1
 463 290 l 2
 463 161 498 113 621 113 c 2
 787 113 l 2
 1045 113 1224 167 1224 389 c 0
94 1321 m 128
 94 1414 220 1404 352 1404 c 2
 739 1404 l 2
 1078 1404 1343 1317 1343 1056 c 132
 1343 884 1215 808 1084 753 c 1
 1325 677 1445 553 1445 379 c 0
 1445 83 1135 -1 798 -1 c 2
 352 0 l 2
 211 0 94 -7 94 90 c 0
 94 138 169 128 205 144 c 0
 231 155 244 179 244 215 c 2
 244 1190 l 2
 244 1238 219 1265 169 1272 c 0
 118 1279 94 1276 94 1321 c 128
796 793 m 2
 978 793 1141 852 1141 1022 c 128
 1141 1264 874 1285 634 1285 c 128
 521 1285 463 1257 463 1141 c 2
 463 793 l 1
 796 793 l 2
EndSplineSet
EndChar

StartChar: C
Encoding: 37 67 36
Width: 1507
Flags: HMW
LayerCount: 2
Fore
SplineSet
266 735 m 0
 266 370 542 131 911 131 c 0
 1133 131 1303 232 1419 348 c 128
 1435 364 1446 372 1454 372 c 128
 1488 372 1513 354 1513 319 c 128
 1513 309 1509 295 1502 279 c 1
 1503 279 l 1
 1404 105 1147 -28 876 -28 c 0
 434 -28 36 222 36 676 c 128
 36 1150 405 1413 877 1413 c 0
 1100 1413 1441 1345 1441 1131 c 128
 1441 1031 1369 987 1274 987 c 0
 1242 987 1216 990 1196 997 c 1
 1182 1203 1082 1305 868 1305 c 128
 506 1305 266 1075 266 735 c 0
EndSplineSet
EndChar

StartChar: D
Encoding: 38 68 37
Width: 1734
Flags: HMW
LayerCount: 2
Fore
SplineSet
1458 696 m 0
 1458 1152 1106 1282 605 1282 c 0
 510 1282 462 1274 462 1259 c 2
 462 142 l 1
 564 131 674 125 792 125 c 128
 1187 125 1458 325 1458 696 c 0
1681 749 m 0
 1681 263 1300 -1 827 -1 c 1
 672 2 510 1 351 1 c 0
 209 1 94 -6 94 91 c 0
 94 139 169 128 205 144 c 0
 231 155 244 180 244 216 c 2
 244 1190 l 2
 244 1240 219 1268 169 1272 c 0
 120 1276 94 1278 94 1321 c 128
 94 1414 219 1404 351 1404 c 2
 660 1404 l 2
 1181 1404 1681 1222 1681 749 c 0
EndSplineSet
EndChar

StartChar: E
Encoding: 39 69 38
Width: 1437
Flags: HMW
LayerCount: 2
Fore
SplineSet
1102 131 m 1
 1157 186 1212 356 1305 356 c 128
 1358 356 1383 319 1383 264 c 128
 1383 117 1245 -4 1113 -4 c 2
 352 0 l 2
 211 0 94 -7 94 90 c 0
 94 138 169 128 205 144 c 0
 231 155 244 179 244 215 c 2
 244 1190 l 2
 244 1238 219 1265 169 1272 c 0
 118 1279 94 1276 94 1321 c 128
 94 1414 220 1404 352 1404 c 2
 1185 1404 l 2
 1290 1404 1354 1308 1354 1198 c 0
 1354 1113 1330 1050 1251 1050 c 128
 1160 1050 1138 1113 1138 1211 c 0
 1138 1236 1138 1262 1139 1286 c 1
 463 1286 l 1
 463 787 l 1
 892 787 l 1
 911 806 953 921 983 921 c 0
 1058 921 1096 857 1096 729 c 0
 1096 637 1073 528 998 528 c 128
 938 528 924 614 891 672 c 1
 463 672 l 1
 463 131 l 1
 1102 131 l 1
EndSplineSet
EndChar

StartChar: F
Encoding: 40 70 39
Width: 1321
Flags: HMW
LayerCount: 2
Fore
SplineSet
94 1321 m 128
 94 1414 218 1404 350 1404 c 2
 1185 1404 l 2
 1290 1404 1354 1308 1354 1198 c 0
 1354 1113 1330 1050 1251 1050 c 128
 1160 1050 1138 1113 1138 1211 c 0
 1138 1236 1138 1262 1139 1286 c 1
 464 1286 l 1
 464 787 l 1
 892 787 l 1
 912 805 954 921 983 921 c 0
 1058 921 1096 857 1096 729 c 0
 1096 637 1073 528 998 528 c 128
 936 528 926 615 891 672 c 1
 464 672 l 1
 464 215 l 2
 464 153 500 135 558 129 c 128
 588 126 614 122 614 86 c 128
 614 -2 490 -2 388 -2 c 0
 244 -2 94 -14 94 90 c 0
 94 138 169 128 205 144 c 0
 231 155 244 179 244 215 c 2
 244 1190 l 2
 244 1238 219 1265 169 1272 c 0
 118 1279 94 1276 94 1321 c 128
EndSplineSet
EndChar

StartChar: G
Encoding: 41 71 40
Width: 1561
Flags: HMW
LayerCount: 2
Fore
SplineSet
39 683 m 0
 39 1126 396 1413 847 1413 c 0
 1070 1413 1411 1345 1411 1131 c 128
 1411 1031 1339 987 1244 987 c 0
 1212 987 1186 990 1167 997 c 1
 1153 1201 1052 1305 842 1305 c 128
 488 1305 268 1070 268 735 c 0
 268 390 510 119 850 119 c 0
 982 119 1214 163 1218 268 c 0
 1219 295 1219 316 1219 334 c 2
 1219 453 l 2
 1219 482 1208 525 1206 550 c 128
 1200 618 1046 606 1046 651 c 0
 1046 743 1192 745 1321 745 c 128
 1435 745 1583 754 1583 651 c 0
 1583 626 1535 619 1511 612 c 0
 1414 584 1412 542 1413 433 c 2
 1416 154 l 1
 1351 135 1284 86 1210 54 c 0
 1082 0 952 -27 819 -27 c 0
 376 -27 39 242 39 683 c 0
EndSplineSet
EndChar

StartChar: H
Encoding: 42 72 41
Width: 1784
Flags: HMW
LayerCount: 2
Fore
SplineSet
1688 86 m 128
 1688 -2 1575 0 1470 0 c 128
 1436 0 1399 -1 1364 -1 c 0
 1263 -1 1170 9 1170 90 c 0
 1170 138 1244 127 1280 144 c 0
 1306 156 1319 179 1319 215 c 2
 1319 662 l 1
 462 662 l 1
 462 215 l 2
 462 152 499 135 558 129 c 128
 588 126 613 122 613 86 c 128
 613 -11 486 0 351 0 c 256
 209 0 94 -7 94 90 c 0
 94 138 169 128 205 144 c 0
 231 155 244 179 244 215 c 2
 244 1190 l 2
 244 1240 219 1268 169 1272 c 0
 120 1276 94 1278 94 1321 c 128
 94 1414 219 1404 351 1404 c 256
 493 1404 613 1411 613 1314 c 0
 613 1265 535 1277 501 1262 c 0
 475 1251 462 1227 462 1190 c 2
 462 777 l 1
 1319 777 l 1
 1319 1190 l 2
 1319 1239 1294 1266 1244 1271 c 0
 1195 1276 1170 1278 1170 1321 c 128
 1170 1406 1301 1404 1424 1404 c 128
 1528 1404 1688 1401 1688 1314 c 0
 1688 1265 1611 1279 1577 1263 c 0
 1551 1251 1538 1226 1538 1190 c 2
 1538 215 l 2
 1538 153 1574 135 1633 129 c 128
 1663 126 1688 122 1688 86 c 128
EndSplineSet
EndChar

StartChar: I
Encoding: 43 73 42
Width: 708
Flags: HMW
LayerCount: 2
Fore
SplineSet
356 0 m 0
 206 0 94 13 94 90 c 0
 94 138 169 128 205 144 c 0
 231 155 244 179 244 215 c 2
 244 1190 l 2
 244 1238 219 1265 169 1272 c 0
 118 1279 94 1276 94 1321 c 0
 94 1406 210 1404 360 1404 c 0
 480 1404 613 1401 613 1314 c 0
 613 1265 535 1279 501 1263 c 0
 475 1251 462 1226 462 1190 c 2
 462 215 l 2
 462 153 498 135 557 129 c 0
 587 126 613 122 613 86 c 0
 613 0 485 0 356 0 c 0
EndSplineSet
EndChar

StartChar: J
Encoding: 44 74 43
Width: 929
Flags: HMW
LayerCount: 2
Fore
SplineSet
368 1321 m 128
 368 1406 481 1404 585 1404 c 128
 698 1405 l 0
 796 1405 887 1394 887 1314 c 0
 887 1265 809 1277 775 1262 c 0
 749 1251 736 1227 736 1190 c 2
 736 439 l 2
 736 125 625 -22 330 -22 c 0
 166 -22 14 71 14 226 c 0
 14 318 71 381 162 381 c 0
 249 381 292 339 292 256 c 0
 292 210 246 162 195 144 c 1
 235 109 274 91 309 91 c 128
 462 91 519 184 519 340 c 2
 519 1190 l 2
 519 1239 494 1266 444 1271 c 0
 395 1276 368 1277 368 1321 c 128
EndSplineSet
EndChar

StartChar: K
Encoding: 45 75 44
Width: 1565
Flags: HMW
LayerCount: 2
Fore
SplineSet
613 83 m 128
 613 -2 498 0 394 0 c 128
 361 0 325 -1 290 -1 c 0
 188 -1 93 9 93 90 c 0
 93 138 168 128 205 144 c 0
 231 155 244 179 244 215 c 2
 244 1190 l 2
 244 1239 218 1266 168 1271 c 0
 119 1276 93 1277 93 1321 c 128
 93 1406 206 1404 310 1404 c 128
 424 1405 l 0
 522 1405 613 1394 613 1314 c 0
 613 1265 535 1277 501 1262 c 0
 475 1251 462 1227 462 1189 c 2
 462 681 l 1
 592 798 793 979 1063 1226 c 0
 1077 1239 1084 1249 1084 1257 c 128
 1084 1292 997 1260 997 1318 c 128
 997 1404 1082 1404 1185 1404 c 128
 1352 1404 1452 1404 1452 1331 c 128
 1452 1291 1411 1291 1370 1279 c 2
 1272 1250 l 1
 1112 1114 938 965 792 843 c 1
 1316 201 l 1
 1357 158 1400 142 1462 132 c 128
 1500 126 1535 126 1535 84 c 128
 1535 5 1428 -1 1340 -1 c 128
 1276 -1 1144 1 1144 40 c 1
 894 372 727 596 643 714 c 1
 462 565 l 1
 462 213 l 2
 462 163 488 136 538 132 c 0
 588 128 613 127 613 83 c 128
EndSplineSet
EndChar

StartChar: L
Encoding: 46 76 45
Width: 1366
Flags: HMW
LayerCount: 2
Fore
SplineSet
1345 269 m 128
 1345 128 1236 -4 1109 -4 c 2
 368 0 l 2
 266 0 200 3 171 10 c 128
 128 20 86 40 86 84 c 128
 86 120 126 123 156 132 c 0
 206 147 236 169 247 197 c 1
 256 236 260 274 260 312 c 2
 260 1093 l 2
 260 1180 244 1232 212 1249 c 0
 181 1266 142 1277 108 1288 c 128
 93 1293 86 1303 86 1320 c 128
 86 1362 125 1383 164 1392 c 0
 197 1400 266 1404 368 1404 c 256
 472 1404 538 1401 567 1394 c 128
 610 1384 653 1364 653 1321 c 128
 653 1287 616 1282 588 1274 c 128
 555 1264 526 1260 507 1236 c 0
 488 1213 479 1165 479 1093 c 2
 479 167 l 2
 479 125 532 122 572 122 c 128
 708 122 851 129 978 141 c 0
 1057 149 1102 157 1116 166 c 1
 1139 193 1156 244 1175 279 c 0
 1203 330 1236 356 1275 356 c 0
 1324 356 1345 321 1345 269 c 128
EndSplineSet
EndChar

StartChar: M
Encoding: 47 77 46
Width: 2031
Flags: HMW
LayerCount: 2
Fore
SplineSet
254 1234 m 2
 254 1271 86 1281 86 1315 c 0
 86 1376 155 1406 293 1406 c 1
 381 1404 l 2
 403 1404 453 1361 474 1324 c 2
 1001 375 l 1
 1175 658 1330 920 1507 1218 c 1
 1507 1217 l 1
 1547 1287 1590 1404 1688 1404 c 1
 1761 1405 l 1
 1883 1405 1944 1375 1944 1315 c 0
 1944 1262 1772 1287 1772 1234 c 2
 1772 172 l 2
 1772 126 1944 129 1944 90 c 0
 1944 29 1878 -1 1746 -1 c 1
 1667 1 l 257
 1584 -1 l 1
 1453 -1 1388 29 1388 90 c 0
 1388 146 1555 113 1555 172 c 2
 1555 1064 l 1
 1418 822 1287 568 1146 338 c 0
 1099 262 1061 208 1032 174 c 1
 1032 175 l 1
 1013 156 995 147 976 147 c 128
 907 147 893 197 867 239 c 2
 430 957 l 1
 430 172 l 2
 430 126 603 130 603 90 c 0
 603 30 541 0 417 0 c 1
 344 1 l 257
 268 -1 l 1
 147 -1 86 29 86 90 c 0
 86 148 254 112 254 172 c 2
 254 1234 l 2
EndSplineSet
EndChar

StartChar: N
Encoding: 48 78 47
Width: 1782
Flags: HMW
LayerCount: 2
Fore
SplineSet
379 -28 m 128
 258 -28 85 -9 85 91 c 0
 85 148 258 129 258 193 c 2
 258 1234 l 2
 258 1271 85 1281 85 1315 c 0
 85 1402 190 1404 302 1404 c 0
 306 1404 310 1404 315 1404 c 128
 388 1404 434 1396 452 1380 c 1
 452 1381 l 1
 1392 362 l 1
 1392 493 l 1
 1391 500 l 1
 1391 1213 l 2
 1391 1240 1219 1276 1219 1305 c 0
 1219 1389 1365 1435 1456 1435 c 128
 1582 1435 1744 1411 1744 1305 c 0
 1744 1280 1578 1238 1578 1213 c 2
 1577 88 l 2
 1577 33 1561 -22 1512 -22 c 128
 1462 -22 1416 28 1390 56 c 0
 1071 395 758 740 444 1083 c 1
 444 193 l 2
 444 153 612 129 612 89 c 128
 612 0 465 -28 379 -28 c 128
EndSplineSet
EndChar

StartChar: O
Encoding: 49 79 48
Width: 1770
Flags: HMW
LayerCount: 2
Fore
SplineSet
890 110 m 0
 1221 110 1498 345 1498 672 c 0
 1498 1053 1231 1293 856 1293 c 0
 513 1293 264 1057 264 714 c 0
 264 369 541 110 890 110 c 0
45 637 m 0
 45 1131 416 1416 886 1416 c 0
 1315 1416 1720 1191 1720 750 c 0
 1720 272 1361 -25 879 -25 c 0
 438 -25 45 214 45 637 c 0
EndSplineSet
EndChar

StartChar: P
Encoding: 50 80 49
Width: 1416
Flags: HMW
LayerCount: 2
Fore
SplineSet
86 1315 m 0
 86 1401 271 1404 407 1404 c 2
 581 1404 l 2
 969 1404 1383 1382 1383 1040 c 128
 1383 626 982 594 542 594 c 2
 479 594 l 1
 479 172 l 2
 479 128 645 126 645 90 c 0
 645 -10 511 1 366 1 c 256
 228 1 86 -10 86 80 c 128
 86 155 253 106 253 172 c 2
 253 1234 l 2
 253 1291 86 1266 86 1315 c 0
1157 979 m 128
 1157 1226 928 1285 687 1285 c 0
 536 1285 479 1285 479 1143 c 2
 479 713 l 1
 515 710 558 710 599 710 c 0
 912 710 1157 756 1157 979 c 128
EndSplineSet
EndChar

StartChar: Q
Encoding: 51 81 50
Width: 1765
Flags: HMW
LayerCount: 2
Fore
SplineSet
35 646 m 0
 35 1140 406 1425 876 1425 c 0
 1305 1425 1710 1199 1710 758 c 0
 1710 347 1444 88 1098 9 c 1
 1184 -82 1280 -188 1424 -188 c 0
 1478 -188 1540 -175 1608 -148 c 1
 1619 -173 1624 -197 1624 -222 c 0
 1624 -348 1538 -418 1409 -418 c 0
 1317 -418 1197 -365 1139 -295 c 2
 906 -15 l 1
 894 -15 881 -16 869 -16 c 0
 428 -16 35 223 35 646 c 0
880 119 m 0
 1211 119 1488 354 1488 681 c 0
 1488 1062 1221 1302 846 1302 c 0
 503 1302 254 1066 254 723 c 0
 254 378 531 119 880 119 c 0
EndSplineSet
EndChar

StartChar: R
Encoding: 52 82 51
Width: 1573
Flags: HMW
LayerCount: 2
Fore
SplineSet
1367 1028 m 128
 1367 783 1153 676 945 635 c 1
 997 563 l 2
 1114 401 1204 253 1342 149 c 0
 1388 114 1456 103 1539 103 c 1
 1550 92 1556 78 1556 63 c 0
 1556 10 1503 -16 1398 -16 c 0
 1281 -16 1195 3 1140 40 c 1
 1141 40 l 1
 1054 112 953 254 838 467 c 2
 755 619 l 1
 478 619 l 1
 478 172 l 2
 478 129 646 126 646 90 c 0
 646 -10 512 1 367 1 c 256
 228 1 86 -10 86 80 c 128
 86 155 254 106 254 172 c 2
 254 1234 l 2
 254 1291 86 1266 86 1315 c 0
 86 1401 272 1404 408 1404 c 2
 581 1404 l 2
 976 1404 1367 1381 1367 1028 c 128
1142 986 m 128
 1142 1239 905 1285 653 1285 c 128
 529 1285 478 1267 478 1143 c 2
 478 740 l 1
 748 740 l 2
 959 740 1142 800 1142 986 c 128
EndSplineSet
EndChar

StartChar: S
Encoding: 53 83 52
Width: 1286
Flags: HMW
LayerCount: 2
Fore
SplineSet
621 1295 m 0
 473 1295 304 1242 304 1110 c 128
 304 1038 368 990 417 957 c 0
 535 878 706 828 830 780 c 128
 1011 710 1254 595 1254 358 c 0
 1254 100 955 -24 675 -24 c 4
 404 -24 45 59 45 292 c 4
 45 368 97 422 188 422 c 4
 290 422 341 346 341 245 c 4
 341 224 339 202 335 178 c 5
 417 136 536 100 660 100 c 132
 847 100 1044 149 1044 330 c 0
 1044 422 953 502 770 572 c 0
 620 629 466 672 333 742 c 0
 217 803 90 904 90 1063 c 0
 90 1317 380 1419 658 1419 c 128
 886 1419 1207 1355 1207 1140 c 0
 1207 1057 1144 996 1050 996 c 0
 1011 996 982 998 962 1002 c 1
 945 1238 872 1295 621 1295 c 0
EndSplineSet
EndChar

StartChar: T
Encoding: 54 84 53
Width: 1221
Flags: HMW
LayerCount: 2
Fore
SplineSet
619 0 m 128
 500 0 330 0 330 90 c 0
 330 150 498 110 498 172 c 2
 498 1279 l 1
 205 1278 l 2
 127 1278 103 1056 28 1056 c 0
 -24 1056 -50 1087 -50 1148 c 0
 -50 1305 -10 1405 151 1405 c 0
 267 1405 385 1405 501 1405 c 2
 733 1405 l 130
 870 1405 1050 1405 1127 1403 c 128
 1235 1397 1263 1252 1263 1142 c 128
 1263 1085 1237 1056 1185 1056 c 0
 1102 1056 1100 1278 1008 1278 c 2
 715 1279 l 1
 715 172 l 2
 715 126 886 130 886 90 c 0
 886 -2 750 0 619 0 c 128
EndSplineSet
EndChar

StartChar: U
Encoding: 55 85 54
Width: 1773
Flags: HMW
LayerCount: 2
Fore
SplineSet
253 1404 m 128
 399 1404 545 1403 545 1315 c 0
 545 1264 377 1283 377 1234 c 2
 377 449 l 2
 377 253 614 123 870 123 c 128
 1128 123 1375 230 1375 462 c 2
 1375 1234 l 2
 1375 1288 1208 1269 1208 1315 c 0
 1208 1416 1353 1404 1472 1404 c 0
 1608 1404 1745 1401 1745 1315 c 0
 1745 1264 1577 1283 1577 1234 c 2
 1577 441 l 2
 1577 129 1220 -21 886 -21 c 128
 540 -21 158 116 158 448 c 2
 158 1234 l 2
 158 1289 -15 1269 -15 1315 c 0
 -15 1406 122 1404 253 1404 c 128
EndSplineSet
EndChar

StartChar: V
Encoding: 56 86 55
Width: 1642
Flags: HMW
LayerCount: 2
Fore
SplineSet
1681 1343 m 0
 1681 1310 1653 1289 1596 1280 c 0
 1531 1269 1489 1252 1469 1228 c 1
 986 133 l 2
 944 38 897 -18 812 -18 c 0
 755 -18 699 16 634 159 c 2
 152 1228 l 1
 127 1257 -77 1284 -77 1343 c 0
 -77 1406 81 1404 187 1404 c 0
 330 1404 484 1413 501 1314 c 1
 498 1295 470 1282 448 1282 c 1
 425 1276 366 1267 366 1242 c 1
 850 163 l 1
 963 457 1251 1114 1251 1114 c 130
 1284 1191 1302 1230 1302 1244 c 0
 1302 1289 1138 1267 1138 1314 c 0
 1138 1400 1278 1404 1403 1404 c 0
 1520 1404 1681 1418 1681 1343 c 0
EndSplineSet
EndChar

StartChar: W
Encoding: 57 87 56
Width: 2537
Flags: HMW
LayerCount: 2
Fore
SplineSet
1594 1343 m 0
 1594 1304 1554 1284 1515 1284 c 1
 1443 1266 1399 1249 1383 1233 c 1
 1365 1189 l 1
 1786 162 l 1
 1923 520 2060 878 2198 1235 c 1
 2198 1300 2036 1259 2036 1314 c 0
 2036 1401 2175 1404 2299 1404 c 0
 2418 1404 2577 1402 2577 1343 c 0
 2577 1305 2539 1284 2501 1284 c 1
 2425 1267 2379 1250 2364 1232 c 1
 1922 132 l 2
 1895 65 1836 -18 1764 -18 c 128
 1653 -18 1609 64 1570 159 c 2
 1256 918 l 1
 940 132 l 2
 907 49 858 -18 771 -18 c 128
 672 -18 631 66 592 159 c 2
 145 1229 l 1
 105 1279 -77 1268 -77 1343 c 0
 -77 1406 89 1404 202 1404 c 0
 337 1404 491 1399 500 1314 c 1
 495 1283 365 1281 365 1242 c 1
 807 162 l 1
 1174 1118 l 1
 1129 1227 l 1
 1106 1259 1024 1274 984 1284 c 1
 925 1294 908 1302 908 1348 c 128
 908 1400 1039 1403 1248 1403 c 1
 1456 1403 1594 1402 1594 1343 c 0
EndSplineSet
EndChar

StartChar: X
Encoding: 58 88 57
Width: 1888
Flags: HMW
LayerCount: 2
Back
SplineSet
817 1330 m 4
 817 1273.19511714 666 1300.44843618 666 1244 c 4
 666 1232.66699219 672.5 1216.66699219 685.5 1196 c 4
 753.925543606 1087.2212051 895.928114699 931.071885301 977 850 c 5
 1019 892 l 6
 1216.33300781 1089.33300781 1315 1204 1315 1236 c 260
 1315 1274.29785156 1210.00292969 1284.61425781 1183 1295 c 5
 1192.76640438 1397.55325742 1246.29472098 1400 1373 1400 c 6
 1722 1400 l 6
 1786.66699219 1400 1819 1389.66699219 1819 1369 c 4
 1819 1342.52441406 1807.66699219 1315.52441406 1785 1288 c 5
 1458.19932692 1249.55298825 1242.90987321 960.293755058 1056 763 c 5
 1127.80761719 661.272460938 1227.80761719 542.939453125 1356 408 c 5
 1377 384 l 5
 1377 385 l 5
 1428 330 l 5
 1543.29587398 209.081279122 1641.72356089 121.674166978 1814 108 c 5
 1840.61914062 85.3740234375 1862.95214844 56.70703125 1881 22 c 5
 1851.83300781 5.3330078125 1719.16699219 -3 1483 -3 c 5
 1263 -1 l 5
 1246 -1 l 6
 1190.91113281 -1 1160.24414062 31 1154 95 c 5
 1200 108 l 5
 1257.52940889 122.382637887 1305 130.03566629 1305 165.5 c 4
 1305 173.833007812 1297.16699219 190.166992188 1281.5 214.5 c 4
 1195.51067722 348.058906643 1032.09095292 528.829644159 933 635 c 5
 917 620 l 5
 663.666992188 354.602539062 537 203.936523438 537 168 c 4
 537 129.906404737 622.730357516 132.759203327 688 111 c 5
 678 46 l 5
 643.5 15.3330078125 576.5 0 477 0 c 4
 303.75 0 303.75 0 204.875 0 c 4
 116.67126062 0 23.0819611612 -7.39006003231 14 35 c 5
 35.6357421875 78.2724609375 51.9697265625 106.606445312 63 120 c 5
 333.730490141 140.509616917 576.601228832 419.352537779 729 585 c 5
 779 640 l 6
 805.666992188 669.333007812 832.333007812 697.333007812 859 724 c 5
 789 807 l 5
 597.157419454 1032.33908837 396.83431361 1251.63264916 135 1298 c 5
 128 1306 l 5
 104 1322 92 1345.66699219 92 1377 c 4
 92 1393 115.333007812 1401 162 1401 c 261
 199 1400 l 5
 311 1400 l 5
 466.5 1401 l 5
 604 1402 l 5
 701 1402 l 6
 778.333007812 1402 817 1378 817 1330 c 4
EndSplineSet
Fore
SplineSet
650 1233 m 0
 650 1219 664 1199 691 1173 c 2
 975 851 l 1
 1278 1170 l 1
 1297 1192 1305 1209 1305 1222 c 0
 1305 1238 1285 1248 1247 1252 c 0
 1084 1278 1155 1404 1504 1404 c 0
 1631 1404 1704 1371 1704 1293 c 0
 1704 1224 1561 1290 1456 1170 c 2
 1061 754 l 1
 1511 261 l 2
 1568 179 1763 170 1763 86 c 0
 1763 0 1696 0 1531 0 c 0
 1391 0 1194 0 1194 90 c 0
 1194 192 1353 131 1253 243 c 2
 928 607 l 5
 579 215 l 2
 489 114 651 159 651 84 c 0
 651 -11 534 0 314 0 c 0
 198 0 122 16 122 96 c 0
 122 168 281 99 391 215 c 2
 848 695 l 5
 414 1159 l 2
 325 1254 139 1233 139 1291 c 0
 139 1361 183 1404 402 1404 c 0
 518 1404 742 1404 742 1329 c 1
 742 1261 650 1242 650 1233 c 0
EndSplineSet
EndChar

StartChar: Y
Encoding: 59 89 58
Width: 1467
Flags: HMW
LayerCount: 2
Fore
SplineSet
825 172 m 2
 825 127 993 131 993 90 c 0
 993 6 864 -3 728 1 c 1
 585 1 436 0 436 90 c 0
 436 147 608 112 608 172 c 2
 608 558 l 1
 472 740 l 2
 356 896 233 1066 113 1218 c 0
 88 1250 -69 1251 -69 1312 c 0
 -69 1373 14 1404 179 1404 c 2
 246 1404 l 2
 419 1404 506 1365 506 1288 c 0
 506 1266 442 1260 397 1254 c 2
 359 1249 l 1
 358 1240 l 1
 756 713 l 1
 1128 1194 l 2
 1146 1215 1160 1235 1169 1252 c 1
 1118 1252 1022 1259 1022 1288 c 0
 1022 1361 1138 1404 1254 1404 c 128
 1339 1404 1507 1396 1507 1319 c 0
 1507 1253 1366 1243 1335 1220 c 1
 825 558 l 1
 825 172 l 2
EndSplineSet
EndChar

StartChar: Z
Encoding: 60 90 59
Width: 1475
Flags: HMW
LayerCount: 2
Fore
SplineSet
1417 303 m 128
 1417 187 1340 0 1234 0 c 2
 157 -1 l 2
 115 -1 81 9 81 50 c 128
 81 70 94 98 118 136 c 128
 183 238 269 342 355 446 c 128
 586 725 845 998 1077 1269 c 1
 1005 1281 901 1285 796 1285 c 2
 300 1283 l 1
 295 1239 l 1
 284 1153 234 1004 146 1004 c 128
 99 1004 74 1049 74 1096 c 0
 74 1346 169 1403 405 1403 c 2
 1098 1405 l 2
 1193 1405 1286 1402 1353 1390 c 1
 1352 1391 l 1
 1368 1381 1376 1368 1376 1351 c 128
 1376 1334 1368 1312 1352 1286 c 128
 1272 1160 1162 1031 1061 911 c 128
 890 706 706 495 529 300 c 0
 459 223 408 170 375 141 c 1
 437 119 627 121 738 121 c 0
 920 121 1065 124 1174 130 c 1
 1217 181 1257 264 1285 320 c 0
 1311 364 1328 385 1338 385 c 0
 1385 385 1417 347 1417 303 c 128
EndSplineSet
EndChar

StartChar: bracketleft
Encoding: 61 91 60
Width: 635
Flags: HMW
LayerCount: 2
Fore
SplineSet
330 -143 m 128
 321 -143 312 -143 304 -143 c 0
 202 -143 170 -139 170 -37 c 2
 170 1661 l 2
 170 1743 199 1770 274 1770 c 128
 296 1770 320 1771 344 1771 c 0
 440 1771 537 1762 537 1681 c 0
 537 1664 512 1651 461 1642 c 128
 410 1633 385 1625 385 1617 c 2
 385 11 l 2
 385 -31 537 -5 537 -54 c 0
 537 -141 434 -143 330 -143 c 128
EndSplineSet
EndChar

StartChar: backslash
Encoding: 62 92 61
Width: 725
Flags: HMW
LayerCount: 2
Fore
SplineSet
-8 1589 m 0
 -8 1642 58 1679 130 1679 c 0
 162 1679 188 1652 205 1597 c 2
 706 -25 l 2
 714 -52 718 -72 718 -83 c 0
 718 -130 655 -168 568 -168 c 0
 543 -168 521 -141 504 -87 c 2
 2 1535 l 2
 -5 1554 -8 1572 -8 1589 c 0
EndSplineSet
EndChar

StartChar: bracketright
Encoding: 63 93 62
Width: 643
Flags: HMW
LayerCount: 2
Fore
SplineSet
473 -37 m 2
 473 -131 445 -143 355 -143 c 128
 338 -143 321 -143 303 -143 c 0
 208 -143 106 -137 106 -54 c 0
 106 -35 131 -22 182 -16 c 128
 233 -10 258 -1 258 11 c 2
 258 1617 l 2
 258 1648 106 1638 106 1681 c 0
 106 1768 208 1770 312 1770 c 128
 434 1770 473 1768 473 1661 c 2
 473 -37 l 2
EndSplineSet
EndChar

StartChar: asciicircum
Encoding: 64 94 63
Width: 972
Flags: HMW
LayerCount: 2
Fore
SplineSet
164 617 m 0
 116 617 72 638 72 685 c 128
 72 722 99 766 116 798 c 128
 139 842 166 900 190 942 c 2
 219 992 l 1
 227 1008 232 1019 234 1024 c 2
 251 1060 l 1
 309 1179 382 1309 506 1309 c 0
 630 1309 704 1174 759 1046 c 1
 807 944 l 2
 835 884 919 740 919 679 c 1
 914 676 l 1
 908 681 l 1
 902 645 869 617 828 617 c 128
 775 617 730 668 702 704 c 0
 673 741 636 799 589 877 c 2
 574 902 l 2
 551 939 529 981 502 1009 c 1
 502 1010 l 1
 488 987 l 1
 430 890 333 759 267 690 c 0
 221 642 187 617 164 617 c 0
EndSplineSet
EndChar

StartChar: underscore
Encoding: 65 95 64
Width: 1239
Flags: HMW
LayerCount: 2
Fore
SplineSet
996 -5 m 2
 1073 -5 1112 -42 1112 -116 c 0
 1112 -205 1067 -250 976 -250 c 2
 304 -250 l 2
 225 -250 185 -213 185 -139 c 0
 185 -50 234 -5 332 -5 c 2
 996 -5 l 2
EndSplineSet
EndChar

StartChar: grave
Encoding: 66 96 65
Width: 509
Flags: HMW
LayerCount: 2
Fore
SplineSet
412 1106 m 1
 369 1124 40 1495 40 1603 c 128
 40 1665 100 1704 160 1704 c 128
 222 1704 273 1656 288 1611 c 128
 326 1500 364 1372 396 1254 c 0
 414 1186 425 1143 426 1125 c 1
 426 1120 l 1
 412 1106 l 1
EndSplineSet
EndChar

StartChar: a
Encoding: 67 97 66
Width: 1131
Flags: HMW
LayerCount: 2
Fore
SplineSet
107 737 m 128
 107 916 352 976 528 976 c 128
 795 976 913 868 913 591 c 2
 912 296 l 2
 912 227 920 181 939 162 c 0
 956 145 1085 120 1085 95 c 0
 1085 25 1013 -10 870 -10 c 0
 757 -10 740 38 738 157 c 1
 680 53 552 -24 392 -24 c 0
 212 -24 62 58 62 238 c 128
 62 497 336 522 566 549 c 0
 646 558 697 569 721 582 c 1
 721 769 697 880 532 880 c 0
 381 880 316 813 316 661 c 1
 317 639 l 1
 292 636 272 634 257 634 c 128
 186 634 107 675 107 737 c 128
721 492 m 1
 546 429 275 483 275 252 c 0
 275 137 342 80 475 80 c 0
 685 80 721 255 721 492 c 1
EndSplineSet
EndChar

StartChar: b
Encoding: 68 98 67
Width: 1182
Flags: HMW
LayerCount: 2
Fore
SplineSet
891 433 m 0
 891 634 767 850 577 850 c 128
 494 850 416 817 346 752 c 1
 346 201 l 1
 426 138 512 107 604 107 c 0
 789 107 891 244 891 433 c 0
1107 502 m 0
 1107 233 913 -18 653 -18 c 128
 532 -18 416 20 304 95 c 1
 279 66 237 -8 195 -8 c 128
 158 -8 156 43 156 83 c 2
 156 1247 l 2
 156 1307 132 1340 84 1345 c 0
 40 1350 13 1347 13 1378 c 0
 13 1449 120 1482 195 1482 c 128
 282 1482 347 1482 347 1407 c 2
 347 854 l 1
 447 939 556 981 674 981 c 0
 948 981 1107 781 1107 502 c 0
EndSplineSet
EndChar

StartChar: c
Encoding: 69 99 68
Width: 1026
Flags: HMW
LayerCount: 2
Fore
SplineSet
563 977 m 0
 738 977 941 898 941 737 c 0
 941 675 881 630 816 630 c 128
 780 630 754 633 739 639 c 1
 731 776 692 873 560 873 c 128
 352 873 235 725 235 526 c 0
 235 296 397 109 624 109 c 0
 689 109 770 132 867 179 c 0
 888 190 907 195 922 195 c 128
 950 195 967 179 967 153 c 128
 967 141 964 127 953 115 c 0
 863 19 727 -27 552 -27 c 0
 248 -27 31 166 31 465 c 0
 31 760 264 977 563 977 c 0
EndSplineSet
EndChar

StartChar: d
Encoding: 70 100 69
Width: 1215
Flags: HMW
LayerCount: 2
Fore
SplineSet
510 871 m 128
 320 871 219 681 219 493 c 0
 219 281 343 99 544 99 c 0
 729 99 812 170 812 356 c 2
 812 751 l 1
 758 823 651 871 510 871 c 128
536 979 m 0
 632 979 757 940 812 912 c 1
 812 1247 l 2
 812 1307 788 1340 740 1345 c 0
 696 1350 669 1347 669 1378 c 0
 669 1449 776 1482 851 1482 c 128
 938 1482 1003 1482 1003 1407 c 2
 1003 313 l 2
 1003 235 1013 188 1027 169 c 0
 1041 151 1058 135 1085 125 c 128
 1120 112 1157 107 1157 74 c 0
 1157 13 1076 -7 1008 -7 c 128
 883 -7 860 35 830 124 c 1
 775 27 661 -21 488 -21 c 0
 209 -21 19 186 19 469 c 0
 19 771 234 979 536 979 c 0
EndSplineSet
EndChar

StartChar: e
Encoding: 71 101 70
Width: 995
Flags: HMW
LayerCount: 2
Fore
SplineSet
32 470 m 128
 32 772 242 976 527 976 c 0
 753 976 933 812 933 588 c 0
 933 525 880 507 805 507 c 2
 226 507 l 1
 229 295 379 123 591 123 c 0
 660 123 727 143 793 184 c 0
 827 205 848 216 857 216 c 256
 877 216 911 196 911 166 c 128
 911 48 654 -27 536 -27 c 128
 234 -27 32 169 32 470 c 128
749 612 m 1
 746 757 673 871 522 871 c 128
 367 871 243 742 236 608 c 1
 470 608 l 2
 564 608 657 609 749 612 c 1
EndSplineSet
EndChar

StartChar: f
Encoding: 72 102 71
Width: 771
Flags: HMW
LayerCount: 2
Fore
SplineSet
90 84 m 0
 90 156 219 97 219 191 c 2
 219 833 l 1
 149 833 l 2
 113 833 88 862 88 896 c 128
 88 960 114 962 168 962 c 2
 219 962 l 1
 219 1109 l 2
 219 1336 367 1459 598 1459 c 0
 721 1459 843 1427 843 1318 c 0
 843 1237 802 1196 720 1196 c 0
 649 1196 613 1237 613 1318 c 2
 613 1332 l 1
 587 1343 561 1348 536 1348 c 0
 422 1348 365 1289 365 1170 c 0
 365 1090 380 1021 409 962 c 1
 554 962 l 2
 602 962 626 948 626 920 c 0
 626 873 591 836 557 836 c 2
 409 836 l 1
 409 191 l 2
 409 98 538 157 538 78 c 128
 538 1 423 0 312 0 c 128
 211 0 90 -7 90 84 c 0
EndSplineSet
EndChar

StartChar: g
Encoding: 73 103 72
Width: 1141
Flags: HMW
LayerCount: 2
Fore
SplineSet
982 622 m 0
 982 432 747 327 528 327 c 0
 465 327 412 340 355 348 c 1
 355 349 l 1
 304 306 279 269 279 237 c 128
 279 176 348 166 410 160 c 128
 664 134 1116 204 1116 -84 c 0
 1116 -333 839 -433 569 -433 c 128
 346 -433 71 -381 71 -168 c 0
 71 -73 119 0 214 51 c 1
 163 100 149 136 149 211 c 128
 149 302 206 338 264 381 c 1
 154 436 71 503 71 641 c 128
 71 873 320 974 530 974 c 0
 615 974 815 925 857 925 c 0
 916 925 951 955 961 1014 c 1
 1035 1014 1089 986 1089 912 c 128
 1089 846 1045 806 981 806 c 0
 954 806 931 808 909 810 c 1
 944 779 982 703 982 622 c 0
275 656 m 0
 275 522 394 424 543 424 c 256
 690 424 793 513 793 647 c 0
 793 779 674 888 541 888 c 0
 391 888 275 801 275 656 c 0
551 -316 m 0
 741 -316 927 -272 927 -107 c 0
 927 -25 768 16 449 16 c 0
 436 16 314 16 314 19 c 1
 263 -33 238 -82 238 -128 c 0
 238 -253 342 -316 551 -316 c 0
EndSplineSet
EndChar

StartChar: h
Encoding: 74 104 73
Width: 1296
Flags: HMW
LayerCount: 2
Fore
SplineSet
529 78 m 128
 529 1 434 0 343 0 c 128
 315 0 286 -1 257 -1 c 0
 166 -1 81 8 81 84 c 0
 81 156 210 97 210 191 c 2
 210 1280 l 2
 210 1319 186 1342 138 1350 c 0
 95 1357 67 1359 67 1396 c 128
 67 1467 198 1482 277 1482 c 0
 360 1482 401 1457 401 1407 c 2
 401 826 l 1
 492 929 611 980 758 980 c 0
 1029 980 1116 825 1116 551 c 2
 1115 191 l 2
 1115 98 1244 157 1244 78 c 128
 1244 1 1149 0 1058 0 c 128
 1030 0 1001 -1 972 -1 c 0
 881 -1 796 8 796 84 c 0
 796 156 925 97 925 191 c 2
 926 482 l 2
 926 716 891 851 682 851 c 128
 462 851 400 707 400 477 c 2
 400 191 l 2
 400 98 529 157 529 78 c 128
EndSplineSet
EndChar

StartChar: i
Encoding: 75 105 74
Width: 670
Flags: HMW
LayerCount: 2
Fore
SplineSet
181 1255 m 256
 181 1315 252 1376 310 1376 c 128
 383 1376 462 1330 462 1271 c 128
 462 1190 400 1143 322 1143 c 128
 249 1143 181 1190 181 1255 c 256
128 84 m 0
 128 156 257 97 257 191 c 2
 257 729 l 2
 257 789 234 822 186 827 c 0
 142 832 114 829 114 860 c 0
 114 931 221 964 296 964 c 128
 383 964 447 964 447 889 c 2
 447 191 l 2
 447 98 576 157 576 78 c 128
 576 1 481 0 390 0 c 128
 362 0 333 -1 304 -1 c 0
 213 -1 128 8 128 84 c 0
EndSplineSet
EndChar

StartChar: j
Encoding: 76 106 75
Width: 574
Flags: HMW
LayerCount: 2
Fore
SplineSet
431 1274 m 128
 431 1193 364 1144 291 1144 c 256
 213 1144 150 1198 150 1257 c 256
 150 1318 215 1374 275 1374 c 128
 350 1374 431 1336 431 1274 c 128
-9 -192 m 0
 -9 -74 256 -125 256 -18 c 128
 256 30 242 68 233 113 c 2
 223 162 l 1
 223 728 l 2
 223 788 200 821 152 826 c 0
 108 831 80 828 80 859 c 0
 80 930 187 963 262 963 c 128
 349 963 414 963 414 888 c 2
 414 152 l 2
 414 -123 345 -242 106 -269 c 0
 103 -270 100 -270 96 -270 c 2
 89 -270 l 2
 24 -270 -9 -244 -9 -192 c 0
EndSplineSet
EndChar

StartChar: k
Encoding: 77 107 76
Width: 1382
Flags: HMW
LayerCount: 2
Fore
SplineSet
84 84 m 0
 84 156 213 97 213 191 c 2
 213 1247 l 2
 213 1307 190 1340 142 1345 c 0
 98 1350 70 1347 70 1378 c 0
 70 1449 177 1482 252 1482 c 128
 339 1482 404 1482 404 1407 c 2
 404 532 l 1
 524 622 662 717 780 810 c 0
 822 843 842 862 842 868 c 256
 842 884 817 899 766 915 c 1
 768 976 824 1006 934 1006 c 2
 1070 1006 l 2
 1238 1006 1322 997 1322 978 c 0
 1322 960 1274 913 1235 891 c 1
 1142 891 1027 822 873 708 c 2
 700 580 l 1
 1014 248 l 130
 1080 180 1132 134 1234 109 c 128
 1290 95 1351 91 1351 38 c 0
 1351 6 1299 -10 1196 -10 c 2
 1148 -10 l 2
 1028 -10 998 -8 942 45 c 128
 818 162 665 369 573 501 c 1
 403 386 l 1
 403 191 l 2
 403 98 532 157 532 78 c 128
 532 1 437 0 346 0 c 128
 318 0 289 -1 260 -1 c 0
 169 -1 84 8 84 84 c 0
EndSplineSet
EndChar

StartChar: l
Encoding: 78 108 77
Width: 604
Flags: HMW
LayerCount: 2
Fore
SplineSet
532 78 m 128
 532 1 437 0 346 0 c 128
 318 0 289 -1 260 -1 c 0
 169 -1 84 8 84 84 c 0
 84 156 212 97 212 191 c 2
 212 1247 l 2
 212 1307 188 1340 140 1345 c 0
 96 1350 69 1347 69 1378 c 0
 69 1449 176 1482 251 1482 c 128
 338 1482 403 1482 403 1407 c 2
 403 191 l 2
 403 98 532 157 532 78 c 128
EndSplineSet
EndChar

StartChar: m
Encoding: 79 109 78
Width: 1957
Flags: HMW
LayerCount: 2
Fore
SplineSet
213 762 m 2
 213 852 70 800 70 869 c 128
 70 937 194 964 258 964 c 128
 372 964 394 942 394 825 c 1
 482 923 593 979 768 979 c 128
 885 979 996 894 1048 814 c 1
 1162 925 1288 980 1426 980 c 0
 1721 980 1769 761 1769 471 c 2
 1769 191 l 2
 1769 98 1898 157 1898 78 c 128
 1898 1 1803 0 1712 0 c 128
 1684 0 1655 -1 1626 -1 c 0
 1535 -1 1450 8 1450 84 c 0
 1450 156 1579 97 1579 191 c 2
 1579 499 l 2
 1579 714 1561 851 1380 851 c 128
 1227 851 1087 777 1087 638 c 2
 1087 191 l 2
 1087 98 1216 157 1216 78 c 128
 1216 1 1121 0 1030 0 c 128
 1002 0 973 -1 944 -1 c 0
 853 -1 768 8 768 84 c 0
 768 156 897 97 897 191 c 2
 897 489 l 2
 897 695 874 851 700 851 c 128
 508 851 403 750 403 570 c 2
 403 191 l 2
 403 98 532 157 532 78 c 128
 532 1 437 0 346 0 c 128
 318 0 289 -1 260 -1 c 0
 169 -1 84 8 84 84 c 0
 84 156 213 97 213 191 c 2
 213 762 l 2
EndSplineSet
EndChar

StartChar: n
Encoding: 80 110 79
Width: 1316
Flags: HMW
LayerCount: 2
Fore
SplineSet
69 878 m 0
 69 942 192 964 255 964 c 0
 370 964 393 943 393 825 c 1
 484 928 610 980 770 980 c 0
 1041 980 1128 825 1128 551 c 2
 1128 191 l 2
 1128 98 1257 157 1257 78 c 0
 1257 1 1159 0 1068 0 c 0
 1040 0 1011 -1 982 -1 c 0
 891 -1 806 8 806 84 c 0
 806 156 935 97 935 191 c 2
 935 482 l 2
 935 720 898 851 699 851 c 0
 460 851 402 729 402 477 c 2
 402 191 l 2
 402 98 531 157 531 78 c 0
 531 1 436 0 345 0 c 0
 317 0 288 -1 259 -1 c 0
 168 -1 83 8 83 84 c 0
 83 156 212 97 212 191 c 2
 212 762 l 2
 212 801 188 824 140 832 c 0
 97 839 69 841 69 878 c 0
EndSplineSet
EndChar

StartChar: o
Encoding: 81 111 80
Width: 1121
Flags: HMW
LayerCount: 2
Fore
SplineSet
534 -25 m 4
 229 -25 32 191 32 479 c 4
 32 778 274 974 580 974 c 4
 871 974 1086 774 1086 483 c 4
 1086 177 844 -25 534 -25 c 4
891 447 m 4
 891 674 759 868 541 868 c 4
 344 868 236 707 236 502 c 4
 236 277 370 86 577 86 c 4
 777 86 891 240 891 447 c 4
EndSplineSet
EndChar

StartChar: p
Encoding: 82 112 81
Width: 1180
Flags: HMW
LayerCount: 2
Fore
SplineSet
948 461 m 0
 948 673 847 851 647 851 c 0
 456 851 360 743 360 528 c 2
 360 199 l 1
 414 129 507 94 639 94 c 0
 837 94 948 255 948 461 c 0
-3 884 m 128
 -3 957 116 962 198 962 c 128
 301 962 351 950 351 856 c 0
 351 845 351 836 350 826 c 1
 442 915 538 979 686 979 c 128
 972 979 1144 754 1144 483 c 0
 1144 193 933 -16 641 -16 c 0
 559 -16 465 11 360 65 c 1
 360 -219 l 2
 360 -312 489 -253 489 -332 c 128
 489 -409 394 -410 303 -410 c 128
 275 -410 246 -411 217 -411 c 0
 126 -411 41 -402 41 -326 c 0
 41 -254 170 -313 170 -219 c 2
 170 683 l 2
 170 775 164 805 112 824 c 128
 79 836 -3 843 -3 884 c 128
EndSplineSet
EndChar

StartChar: q
Encoding: 83 113 82
Width: 1207
Flags: HMW
LayerCount: 2
Fore
SplineSet
29 445 m 0
 29 749 246 974 548 974 c 0
 638 974 772 927 850 877 c 1
 858 935 899 964 971 964 c 0
 1078 964 1190 944 1190 868 c 128
 1190 840 1156 835 1131 828 c 0
 1024 799 1012 763 1012 644 c 2
 1012 -219 l 2
 1012 -312 1141 -253 1141 -332 c 128
 1141 -409 1046 -410 955 -410 c 128
 927 -410 898 -411 869 -411 c 0
 778 -411 693 -402 693 -326 c 0
 693 -254 822 -313 822 -219 c 2
 822 86 l 1
 692 9 579 -29 482 -29 c 0
 218 -29 29 178 29 445 c 0
227 485 m 0
 227 303 338 95 526 95 c 128
 666 95 760 139 822 215 c 1
 822 728 l 2
 822 809 654 866 561 866 c 128
 343 866 227 696 227 485 c 0
EndSplineSet
EndChar

StartChar: r
Encoding: 84 114 83
Width: 890
Flags: HMW
LayerCount: 2
Fore
SplineSet
397 785 m 1
 443 902 561 969 681 969 c 128
 772 969 860 921 860 840 c 0
 860 772 807 724 738 724 c 128
 670 724 618 764 604 821 c 1
 591 823 574 825 561 825 c 0
 457 825 405 705 405 466 c 2
 405 191 l 2
 405 98 534 157 534 78 c 128
 534 1 439 0 348 0 c 128
 320 0 291 -1 262 -1 c 0
 171 -1 86 8 86 84 c 0
 86 156 215 97 215 191 c 2
 215 685 l 2
 215 842 158 812 59 856 c 128
 48 861 42 870 42 882 c 0
 42 935 114 962 257 962 c 0
 379 962 397 937 397 785 c 1
EndSplineSet
EndChar

StartChar: s
Encoding: 85 115 84
Width: 1028
Flags: HMW
LayerCount: 2
Back
SplineSet
505.5 -26.5 m 4
 310.808314732 -26.5 53.5 27.013560621 53.5 177.5 c 4
 53.5 239.265177009 107.681379358 279.18401026 160.745420038 279.18401026 c 4
 211.665088942 279.18401026 261.555900079 253.270993589 261.555900079 190.187423586 c 4
 261.555900079 167.543019325 259.737744731 144.926468387 255.5 119.5 c 5
 314.789742834 104.944636418 400.513649197 92.5 490 92.5 c 132
EndSplineSet
Fore
SplineSet
506 91 m 128
 656 91 731 137 731 229 c 0
 731 299 663 353 528 392 c 0
 417 424 355 437 300 459 c 0
 198 499 90 584 90 712 c 0
 90 868 261 979 464 979 c 128
 649 979 893 911 893 740 c 0
 893 680 824 635 761 635 c 128
 712 635 692 639 692 683 c 0
 692 812 624 876 487 876 c 0
 378 876 276 824 276 741 c 0
 276 625 498 589 609 555 c 0
 771 506 929 439 929 266 c 0
 929 76 712 -26 506 -26 c 0
 322 -26 78 34 78 202 c 0
 78 264 133 303 186 303 c 0
 237 303 287 273 287 200 c 0
 287 177 284 155 280 130 c 1
 337 109 420 91 506 91 c 128
EndSplineSet
EndChar

StartChar: t
Encoding: 86 116 85
Width: 739
Flags: HMW
LayerCount: 2
Fore
SplineSet
649 93 m 0
 649 42 483 -18 367 -18 c 0
 209 -18 138 105 138 269 c 2
 138 828 l 1
 115 828 95 827 77 827 c 0
 34 827 6 831 6 862 c 128
 6 931 127 941 157 986 c 128
 188 1033 244 1231 305 1231 c 0
 345 1231 334 1074 334 957 c 1
 572 956 l 2
 617 956 655 932 655 892 c 128
 655 852 618 831 573 831 c 2
 334 831 l 1
 333 320 l 2
 333 209 354 103 442 103 c 128
 499 103 567 140 608 140 c 0
 635 140 649 124 649 93 c 0
EndSplineSet
EndChar

StartChar: u
Encoding: 87 117 86
Width: 1261
Flags: HMW
LayerCount: 2
Fore
SplineSet
336 433 m 2
 336 212 380 109 583 109 c 128
 791 109 863 196 863 411 c 2
 863 749 l 2
 863 799 838 825 790 828 c 0
 748 830 720 830 720 862 c 0
 720 935 828 964 906 964 c 128
 1023 964 1055 952 1055 838 c 2
 1056 198 l 2
 1056 152 1080 128 1128 125 c 0
 1175 122 1201 124 1201 86 c 128
 1201 13 1084 -11 1012 -11 c 128
 886 -11 875 17 875 149 c 1
 801 41 678 -27 505 -27 c 0
 234 -27 143 122 143 406 c 2
 143 749 l 2
 143 799 119 825 72 828 c 0
 29 830 1 830 1 862 c 0
 1 935 108 964 186 964 c 128
 303 964 336 952 336 838 c 2
 336 433 l 2
EndSplineSet
EndChar

StartChar: v
Encoding: 88 118 87
Width: 1189
Flags: HMW
LayerCount: 2
Fore
SplineSet
741 891 m 0
 741 939 872 961 970 961 c 128
 1038 961 1197 945 1197 894 c 0
 1197 862 1176 847 1136 841 c 0
 1051 828 1033 819 1006 762 c 130
 706 118 l 6
 663 28 649 -25 579 -25 c 132
 521 -25 507 15 488 61 c 134
 145 759 l 2
 115 820 111 827 18 841 c 0
 -22 847 -43 862 -43 895 c 0
 -43 941 129 961 186 961 c 128
 270 961 472 955 472 891 c 0
 472 844 345 850 345 804 c 0
 345 773 556 311 608 198 c 1
 668 332 868 773 868 804 c 0
 868 850 741 844 741 891 c 0
EndSplineSet
EndChar

StartChar: w
Encoding: 89 119 88
Width: 1717
Flags: HMW
LayerCount: 2
Fore
SplineSet
1418 804 m 0
 1418 806 1419 807 1419 809 c 0
 1419 846 1289 838 1289 893 c 0
 1289 905 1291 925 1296 933 c 1
 1367 950 1444 958 1527 958 c 0
 1634 958 1734 952 1734 915 c 0
 1734 890 1723 869 1700 851 c 1
 1594 835 1555 787 1524 705 c 2
 1462 542 l 1
 1343 243 1277 82 1263 59 c 128
 1240 20 1209 -24 1168 -24 c 0
 1125 -24 1095 55 1079 88 c 128
 1007 251 850 593 850 593 c 1
 850 593 692 240 607 64 c 1
 577 -9 549 -16 497 -16 c 0
 476 -16 442 61 423 98 c 130
 185 650 l 130
 161 705 122 807 97 832 c 1
 97 831 l 1
 40 857 -45 839 -45 909 c 0
 -45 945 64 958 229 958 c 0
 351 958 460 939 460 913 c 0
 460 866 441 859 402 849 c 0
 364 839 345 823 345 800 c 0
 345 740 467 434 484 390 c 0
 518 302 544 239 563 200 c 1
 625 331 698 504 783 720 c 1
 766 762 751 801 724 822 c 2
 683 855 l 2
 661 872 650 884 650 891 c 0
 650 930 726 943 852 943 c 0
 956 943 1045 937 1045 904 c 0
 1045 848 954 879 954 834 c 128
 954 796 974 757 988 718 c 128
 1046 559 1202 197 1202 197 c 1
 1202 197 1377 654 1418 804 c 0
EndSplineSet
EndChar

StartChar: x
Encoding: 90 120 89
Width: 1274
Flags: HMW
LayerCount: 2
Fore
SplineSet
848 799 m 0
 848 838 739 826 739 870 c 0
 739 943 874 958 947 958 c 0
 1039 958 1173 943 1173 870 c 0
 1173 841 1156 827 1123 827 c 0
 1079 827 1002 794 960 752 c 2
 725 516 l 1
 963 238 l 1
 1014 181 1095 161 1160 122 c 0
 1175 113 1183 99 1183 80 c 0
 1183 8 1093 -1 1016 -1 c 2
 903 -1 l 2
 787 -1 729 27 729 84 c 0
 729 137 821 119 821 153 c 0
 821 172 797 192 787 204 c 0
 726 274 679 327 613 406 c 1
 613 405 607 398 595 386 c 0
 547 336 486 272 437 220 c 0
 396 176 376 152 376 148 c 0
 376 138 422 134 436 132 c 0
 476 125 495 109 495 83 c 0
 495 4 379 0 270 0 c 0
 267 0 264 0 261 0 c 0
 165 0 52 1 52 88 c 0
 52 117 70 119 95 124 c 0
 177 142 209 169 255 208 c 0
 354 292 435 366 553 474 c 1
 502 543 436 626 353 720 c 0
 310 769 252 802 182 821 c 0
 134 834 91 837 91 862 c 0
 91 926 174 958 341 958 c 0
 508 958 591 929 591 872 c 256
 591 848 565 831 514 822 c 0
 505 820 500 819 500 816 c 0
 500 799 512 776 534 748 c 2
 582 687 l 2
 606 658 633 626 664 593 c 1
 801 732 l 2
 822 753 848 780 848 799 c 0
EndSplineSet
EndChar

StartChar: y
Encoding: 91 121 90
Width: 1125
Flags: HMW
LayerCount: 2
Fore
SplineSet
703 867 m 128
 703 958 859 958 958 958 c 128
 1036 958 1137 932 1137 864 c 0
 1137 849 1127 840 1107 836 c 0
 1023 821 992 795 959 723 c 0
 874 540 827 424 744 252 c 2
 529 -190 l 2
 490 -272 421 -357 315 -357 c 128
 222 -357 133 -307 133 -224 c 0
 133 -149 185 -102 255 -102 c 0
 320 -102 388 -139 391 -192 c 1
 446 -105 481 -39 498 6 c 1
 471 80 374 281 206 608 c 0
 171 676 147 724 134 751 c 128
 103 816 45 819 -24 840 c 128
 -38 844 -45 855 -45 872 c 128
 -45 950 107 958 191 958 c 128
 296 958 456 954 456 869 c 0
 456 820 337 833 337 783 c 0
 337 781 462 435 590 205 c 1
 655 342 730 500 792 642 c 0
 826 720 843 764 843 777 c 128
 843 845 703 810 703 867 c 128
EndSplineSet
EndChar

StartChar: z
Encoding: 92 122 91
Width: 1059
Flags: HMW
LayerCount: 2
Fore
SplineSet
753 125 m 1
 792 161 826 322 887 322 c 128
 942 322 985 300 985 249 c 0
 985 236 983 221 978 206 c 2
 967 175 l 1
 923 53 900 -9 773 -9 c 1
 689 -5 l 1
 681 -5 l 1
 514 2 l 1
 162 0 l 2
 117 0 89 14 89 54 c 128
 89 64 95 79 106 98 c 128
 158 187 235 276 302 358 c 0
 347 413 405 482 475 566 c 2
 534 636 l 1
 581 693 633 753 678 808 c 128
 689 822 697 833 701 840 c 1
 681 843 658 844 633 844 c 2
 444 842 l 1
 414 842 l 1
 380 841 l 1
 319 844 l 1
 319 846 l 1
 268 716 216 651 162 651 c 0
 117 651 82 675 82 720 c 128
 82 826 151 958 239 958 c 2
 928 958 l 1
 954 950 967 933 967 905 c 0
 967 871 849 716 612 440 c 0
 578 400 545 362 514 326 c 2
 469 274 l 2
 424 222 374 173 344 128 c 1
 370 121 403 118 443 118 c 2
 557 118 l 2
 636 118 702 121 753 126 c 1
 753 125 l 1
EndSplineSet
EndChar

StartChar: braceleft
Encoding: 93 123 92
Width: 613
Flags: HMW
LayerCount: 2
Fore
SplineSet
3 781 m 1
 150 786 188 882 188 1047 c 1
 187 1131 l 1
 187 1256 209 1357 254 1436 c 0
 297 1512 351 1550 415 1550 c 0
 500 1550 580 1525 656 1474 c 1
 628 1394 l 1
 582 1404 543 1409 511 1409 c 128
 442 1409 421 1362 406 1304 c 128
 371 1165 388 968 346 837 c 0
 323 766 284 730 229 729 c 1
 306 727 353 655 369 512 c 0
 382 397 380 259 406 156 c 0
 424 86 455 50 500 50 c 0
 536 50 578 55 628 64 c 1
 656 -16 l 1
 578 -67 497 -92 415 -92 c 0
 351 -92 297 -54 254 22 c 0
 209 101 187 203 187 327 c 1
 188 410 l 2
 188 492 180 548 164 580 c 0
 132 643 79 675 3 677 c 1
 3 781 l 1
EndSplineSet
EndChar

StartChar: bar
Encoding: 94 124 93
Width: 437
Flags: HMW
LayerCount: 2
Fore
SplineSet
158 1440 m 2
 158 1495 177 1550 223 1550 c 0
 262 1550 281 1513 281 1440 c 2
 281 8 l 2
 281 -42 261 -88 218 -88 c 128
 175 -88 157 -41 157 8 c 2
 158 1440 l 2
EndSplineSet
EndChar

StartChar: braceright
Encoding: 95 125 94
Width: 622
Flags: HMW
LayerCount: 2
Fore
SplineSet
435 1131 m 1
 434 1047 l 2
 434 966 442 910 458 878 c 0
 490 815 543 783 619 781 c 1
 619 677 l 1
 511 674 451 616 439 505 c 0
 436 474 434 442 434 410 c 2
 435 327 l 1
 435 203 413 101 368 22 c 0
 325 -54 271 -92 207 -92 c 0
 125 -92 44 -67 -34 -16 c 1
 -6 64 l 1
 44 55 84 50 114 50 c 128
 180 50 202 100 216 156 c 128
 251 294 234 490 276 621 c 0
 299 692 338 728 393 729 c 1
 316 731 269 803 253 946 c 0
 240 1061 242 1201 216 1304 c 0
 198 1374 167 1409 122 1409 c 0
 82 1409 40 1404 -6 1394 c 1
 -34 1474 l 1
 42 1525 122 1550 207 1550 c 0
 271 1550 325 1512 368 1436 c 0
 413 1357 435 1256 435 1131 c 1
EndSplineSet
EndChar

StartChar: asciitilde
Encoding: 96 126 95
Width: 1021
Flags: HMW
LayerCount: 2
Fore
SplineSet
791 1278 m 0
 838 1278 896 1325 919 1329 c 1
 941 1321 l 1
 899 1238 832 1181 740 1150 c 0
 711 1140 681 1136 648 1136 c 128
 573 1136 502 1163 442 1184 c 128
 388 1203 312 1233 248 1233 c 128
 202 1233 188 1225 163 1210 c 0
 137 1194 117 1185 103 1183 c 1
 82 1191 l 1
 120 1273 180 1330 262 1361 c 0
 288 1371 318 1376 352 1376 c 128
 429 1376 505 1348 568 1327 c 0
 667 1294 741 1278 791 1278 c 0
EndSplineSet
EndChar

StartChar: exclamdown
Encoding: 98 161 97
Width: 517
Flags: HMW
LayerCount: 2
Fore
SplineSet
262 -18 m 256
 158 -18 118 39 118 141 c 0
 118 157 120 180 123 212 c 2
 200 879 l 2
 206 934 208 993 260 993 c 128
 312 993 317 934 324 879 c 2
 401 212 l 2
 404 180 406 157 406 141 c 0
 406 39 366 -18 262 -18 c 256
240 1534 m 128
 345 1534 412 1490 412 1386 c 128
 412 1305 349 1249 277 1249 c 128
 173 1249 104 1297 104 1394 c 0
 104 1472 165 1534 240 1534 c 128
EndSplineSet
EndChar

StartChar: cent
Encoding: 99 162 98
Width: 1090
Flags: HMW
LayerCount: 2
Fore
SplineSet
1067 896 m 0
 1067 817 996 781 927 781 c 0
 898 781 877 784 862 790 c 1
 859 945 805 1032 699 1050 c 1
 602 214 l 1
 623 211 645 210 667 210 c 128
 770 210 870 248 942 281 c 128
 979 298 1004 306 1019 306 c 0
 1047 306 1061 293 1061 267 c 0
 1061 252 1056 239 1046 226 c 1
 940 125 787 74 589 74 c 2
 586 74 l 1
 553 -210 l 2
 550 -238 534 -260 506 -260 c 128
 485 -260 462 -238 462 -217 c 128
 462 -206 462 -200 463 -197 c 2
 494 80 l 1
 229 113 36 294 36 583 c 0
 36 742 92 874 203 982 c 0
 313 1088 451 1147 617 1156 c 1
 646 1407 l 2
 649 1434 665 1456 692 1456 c 128
 719 1456 737 1431 737 1402 c 128
 737 1385 728 1302 711 1155 c 1
 864 1142 971 1093 1033 1008 c 0
 1056 977 1067 939 1067 896 c 0
605 1052 m 1
 397 1034 243 877 243 652 c 0
 243 441 360 291 512 236 c 1
 605 1052 l 1
EndSplineSet
EndChar

StartChar: sterling
Encoding: 100 163 99
Width: 1322
Flags: HMW
LayerCount: 2
Fore
SplineSet
1217 1232 m 128
 1217 1142 1167 1095 1081 1095 c 0
 1052 1095 1033 1140 1020 1165 c 128
 996 1210 968 1259 930 1295 c 0
 881 1342 818 1365 743 1365 c 0
 578 1365 480 1298 449 1166 c 0
 440 1129 436 1081 436 1021 c 2
 438 844 l 1
 822 844 l 2
 896 844 942 837 960 822 c 0
 968 815 972 802 972 786 c 128
 972 752 952 729 927 718 c 0
 907 710 874 706 828 706 c 2
 422 706 l 1
 422 167 l 2
 422 125 475 122 515 122 c 128
 651 122 793 129 920 141 c 0
 999 149 1045 157 1059 166 c 1
 1082 193 1099 244 1118 279 c 0
 1146 330 1179 356 1218 356 c 0
 1267 356 1288 321 1288 269 c 128
 1288 128 1179 -4 1052 -4 c 2
 311 0 l 2
 209 0 143 3 114 10 c 128
 71 20 29 40 29 84 c 128
 29 120 69 123 99 132 c 0
 149 147 179 169 190 197 c 1
 199 236 203 274 203 312 c 2
 202 708 l 1
 81 712 20 737 20 782 c 0
 20 836 126 845 213 848 c 1
 213 925 l 2
 213 1261 389 1471 721 1471 c 0
 908 1471 1118 1424 1193 1309 c 0
 1209 1284 1217 1259 1217 1232 c 128
EndSplineSet
EndChar

StartChar: currency
Encoding: 101 164 100
Width: 915
Flags: HMW
LayerCount: 2
Fore
SplineSet
102 1173 m 128
 102 1193 116 1208 136 1208 c 128
 146 1208 157 1203 166 1194 c 2
 338 1022 l 1
 376 1039 417 1048 461 1048 c 128
 505 1048 544 1040 577 1025 c 1
 746 1194 l 2
 755 1203 765 1208 775 1208 c 128
 795 1208 809 1192 809 1172 c 128
 809 1162 804 1152 795 1143 c 2
 638 986 l 1
 676 951 695 907 695 854 c 256
 695 801 676 757 638 722 c 1
 797 563 l 1
 804 554 808 544 808 533 c 0
 808 515 797 498 776 498 c 128
 766 498 756 503 747 512 c 2
 577 681 l 1
 543 666 503 658 456 658 c 128
 409 658 369 666 334 681 c 1
 165 512 l 2
 156 503 146 498 136 498 c 128
 116 498 101 514 101 534 c 128
 101 544 106 554 115 563 c 2
 274 722 l 1
 239 757 222 799 222 850 c 128
 222 901 241 944 279 981 c 1
 117 1143 l 2
 107 1153 102 1163 102 1173 c 128
320 851 m 128
 320 781 373 727 441 727 c 128
 536 727 596 770 596 857 c 128
 596 936 539 979 458 979 c 128
 377 979 320 929 320 851 c 128
EndSplineSet
EndChar

StartChar: yen
Encoding: 102 165 101
Width: 1367
Flags: HMW
LayerCount: 2
Fore
SplineSet
1133 363 m 256
 1133 329 1103 299 1069 299 c 2
 785 299 l 1
 785 165 l 2
 785 135 874 132 898 126 c 0
 925 119 938 107 938 90 c 0
 938 29 876 -1 753 -1 c 1
 676 1 l 257
 602 0 l 1
 477 0 414 30 414 90 c 0
 414 111 440 125 493 133 c 0
 533 139 572 141 572 165 c 2
 572 299 l 1
 300 299 l 2
 265 299 236 328 236 363 c 256
 236 397 266 426 300 426 c 2
 572 426 l 1
 572 509 l 1
 300 509 l 2
 265 509 236 538 236 573 c 256
 236 607 266 636 300 636 c 2
 482 636 l 1
 360 798 245 957 121 1117 c 0
 109 1132 87 1143 53 1147 c 128
 -6 1155 -48 1156 -48 1208 c 0
 -48 1269 31 1300 188 1300 c 2
 248 1300 l 2
 412 1300 494 1262 494 1186 c 0
 494 1159 428 1151 367 1144 c 1
 371 1142 393 1114 432 1060 c 128
 533 921 620 807 715 671 c 1
 819 809 923 940 1027 1078 c 1
 1027 1077 l 1
 1041 1098 1067 1121 1078 1144 c 1
 1034 1144 1002 1149 981 1159 c 128
 960 1169 949 1178 949 1186 c 0
 949 1229 980 1260 1042 1280 c 0
 1084 1293 1121 1300 1152 1300 c 128
 1239 1300 1302 1296 1362 1268 c 0
 1393 1254 1408 1237 1408 1217 c 128
 1408 1140 1296 1145 1248 1117 c 1
 878 636 l 1
 1069 636 l 2
 1104 636 1133 608 1133 573 c 256
 1133 539 1103 509 1069 509 c 2
 785 509 l 1
 785 426 l 1
 1069 426 l 2
 1104 426 1133 398 1133 363 c 256
EndSplineSet
EndChar

StartChar: brokenbar
Encoding: 103 166 102
Width: 431
Flags: HMW
LayerCount: 2
Fore
SplineSet
155 1440 m 2
 155 1491 176 1540 220 1540 c 0
 259 1540 278 1507 278 1440 c 2
 278 944 l 2
 278 898 255 858 214 858 c 128
 173 858 154 898 154 944 c 2
 155 1440 l 2
155 560 m 2
 155 611 176 660 220 660 c 0
 259 660 278 627 278 560 c 2
 278 4 l 2
 278 -42 255 -82 214 -82 c 128
 173 -82 154 -42 154 4 c 2
 155 560 l 2
EndSplineSet
EndChar

StartChar: section
Encoding: 104 167 103
Width: 1040
Flags: HMW
LayerCount: 2
Fore
SplineSet
779 1063 m 128
 730 1063 710 1067 710 1111 c 0
 710 1240 642 1304 505 1304 c 0
 396 1304 294 1252 294 1169 c 0
 294 1124 328 1087 396 1057 c 0
 539 995 727 972 845 886 c 0
 913 836 947 772 947 694 c 0
 947 592 893 514 784 460 c 1
 879 408 927 335 927 242 c 0
 927 123 852 42 702 -1 c 0
 647 -17 597 -25 553 -25 c 128
 432 -25 356 -7 273 32 c 128
 201 66 124 131 124 214 c 0
 124 251 142 279 180 298 c 0
 207 312 233 319 256 319 c 128
 305 319 325 315 325 271 c 0
 325 142 393 78 530 78 c 0
 639 78 741 130 741 213 c 0
 741 258 707 295 639 325 c 0
 496 387 308 410 190 496 c 0
 122 546 88 610 88 688 c 0
 88 791 142 869 250 921 c 1
 155 973 108 1046 108 1140 c 0
 108 1259 183 1340 333 1383 c 0
 388 1399 438 1407 482 1407 c 128
 603 1407 679 1389 762 1350 c 128
 834 1316 911 1251 911 1168 c 0
 911 1131 892 1103 854 1084 c 0
 827 1070 802 1063 779 1063 c 128
612 526 m 1
 694 539 749 576 749 664 c 128
 749 726 695 762 647 784 c 128
 582 814 499 834 423 856 c 1
 332 838 286 795 286 725 c 0
 286 653 354 598 492 560 c 0
 531 549 571 538 612 526 c 1
EndSplineSet
EndChar

StartChar: dieresis
Encoding: 105 168 104
Width: 1015
Flags: HMW
LayerCount: 2
Fore
SplineSet
786 1366 m 256
 717 1366 667 1423 667 1476 c 256
 667 1530 721 1587 774 1587 c 128
 851 1587 908 1545 908 1476 c 256
 908 1414 849 1366 786 1366 c 256
356 1476 m 256
 356 1420 301 1366 248 1366 c 128
 173 1366 115 1409 115 1476 c 256
 115 1531 171 1587 224 1587 c 128
 300 1587 356 1543 356 1476 c 256
EndSplineSet
EndChar

StartChar: copyright
Encoding: 106 169 105
Width: 1639
Flags: HMW
LayerCount: 2
Fore
SplineSet
639 769 m 0
 639 580 741 407 922 407 c 0
 965 407 1004 414 1040 430 c 128
 1076 446 1100 457 1114 464 c 128
 1128 471 1141 475 1150 475 c 128
 1159 475 1163 465 1163 444 c 128
 1163 387 1107 336 1066 310 c 0
 1005 272 935 253 856 253 c 128
 696 253 584 311 508 396 c 0
 431 482 392 588 392 712 c 0
 392 835 430 940 508 1024 c 0
 595 1118 714 1165 864 1165 c 0
 1022 1165 1176 1070 1176 917 c 128
 1176 884 1139 859 1103 859 c 128
 1013 859 1001 970 966 1026 c 0
 942 1065 909 1085 869 1085 c 128
 783 1085 731 1043 696 988 c 0
 658 928 639 855 639 769 c 0
865 1403 m 0
 1068 1403 1256 1313 1372 1210 c 128
 1487 1107 1593 932 1593 731 c 128
 1593 555 1552 441 1482 334 c 128
 1354 140 1113 -16 809 -16 c 0
 517 -16 277 136 154 322 c 0
 82 431 46 550 46 679 c 0
 46 979 233 1198 446 1308 c 0
 568 1371 708 1403 865 1403 c 0
191 685 m 0
 191 496 266 350 366 252 c 0
 483 137 630 80 810 80 c 0
 993 80 1144 139 1264 258 c 0
 1383 376 1443 524 1443 703 c 0
 1443 876 1386 1018 1272 1132 c 0
 1158 1246 1013 1304 836 1304 c 0
 651 1304 497 1245 374 1126 c 0
 252 1008 191 861 191 685 c 0
EndSplineSet
EndChar

StartChar: ordfeminine
Encoding: 107 170 106
Width: 985
Flags: HMW
LayerCount: 2
Fore
SplineSet
482 1362 m 128
 702 1362 799 1269 799 1043 c 2
 799 926 l 1
 797 838 l 1
 797 759 804 713 818 699 c 0
 840 677 939 672 939 640 c 0
 939 579 878 548 757 548 c 0
 715 548 688 555 676 568 c 0
 657 588 646 620 643 664 c 1
 584 579 492 536 368 536 c 0
 247 536 164 577 118 658 c 0
 102 686 94 722 94 765 c 128
 94 985 344 982 534 1012 c 128
 570 1018 602 1028 628 1041 c 1
 628 1114 622 1165 610 1191 c 0
 585 1243 540 1269 476 1269 c 0
 369 1269 315 1213 315 1100 c 1
 316 1075 l 1
 297 1071 278 1069 262 1069 c 128
 197 1069 130 1105 130 1161 c 128
 130 1275 243 1319 334 1343 c 0
 382 1356 431 1362 482 1362 c 128
282 777 m 128
 282 686 332 636 422 636 c 128
 510 636 567 675 595 734 c 0
 617 780 628 852 628 950 c 1
 503 908 282 939 282 777 c 128
EndSplineSet
EndChar

StartChar: guillemotleft
Encoding: 108 171 107
Width: 1197
Flags: HMW
LayerCount: 2
Fore
SplineSet
1046 926 m 128
 1080 926 1109 905 1109 874 c 128
 1109 860 1101 844 1084 824 c 128
 1020 749 924 677 842 616 c 0
 777 568 731 537 707 524 c 1
 756 495 814 453 881 396 c 128
 948 339 994 297 1020 272 c 128
 1046 247 1067 225 1084 204 c 128
 1101 183 1109 166 1109 152 c 128
 1109 125 1081 100 1054 100 c 128
 1040 100 1023 104 1002 114 c 128
 914 154 828 219 753 278 c 128
 698 321 640 371 594 419 c 0
 548 468 525 500 525 516 c 128
 525 532 531 549 544 566 c 128
 597 638 680 703 754 758 c 128
 809 799 872 842 930 876 c 0
 988 910 1027 926 1046 926 c 128
563 926 m 128
 597 926 626 905 626 874 c 128
 626 860 618 844 601 824 c 128
 537 749 440 677 358 616 c 0
 293 568 247 537 223 524 c 1
 270 498 328 456 396 398 c 128
 464 340 511 299 537 274 c 128
 563 249 584 226 601 205 c 128
 618 184 626 166 626 152 c 128
 626 124 600 100 572 100 c 128
 558 100 540 104 519 114 c 128
 431 154 345 219 270 278 c 128
 215 321 158 371 112 419 c 0
 66 468 42 500 42 516 c 128
 42 532 48 549 61 566 c 128
 114 638 197 703 271 758 c 128
 326 799 390 842 448 876 c 0
 506 910 544 926 563 926 c 128
EndSplineSet
EndChar

StartChar: logicalnot
Encoding: 109 172 108
Width: 1182
Flags: HMW
LayerCount: 2
Fore
SplineSet
47 611 m 128
 47 711 88 724 196 724 c 2
 955 724 l 2
 1029 724 1066 700 1066 652 c 2
 1060 350 l 1
 1057 260 1036 216 957 216 c 0
 905 216 861 233 861 282 c 1
 864 418 l 2
 865 461 866 502 866 543 c 1
 179 543 l 2
 102 543 47 550 47 611 c 128
EndSplineSet
EndChar

StartChar: uni00AD
Encoding: 110 173 109
Width: 1203
Flags: HMW
LayerCount: 2
Fore
SplineSet
1117 437 m 128
 1117 355 1071 342 981 342 c 2
 225 342 l 2
 147 342 99 358 99 419 c 128
 99 512 148 522 247 522 c 2
 987 522 l 2
 1068 522 1117 507 1117 437 c 128
EndSplineSet
EndChar

StartChar: registered
Encoding: 111 174 110
Width: 1639
Flags: HMW
LayerCount: 2
Fore
SplineSet
513 1004 m 2
 513 1035 418 1019 418 1052 c 128
 418 1075 450 1085 474 1090 c 0
 503 1095 553 1098 626 1098 c 2
 721 1098 l 2
 839 1098 922 1092 968 1078 c 128
 1070 1048 1146 1000 1146 887 c 0
 1146 804 1103 742 1018 700 c 0
 994 688 969 679 942 673 c 1
 971 634 l 1
 1036 524 1093 447 1141 404 c 1
 1171 387 1208 379 1250 379 c 1
 1256 373 1259 366 1259 357 c 0
 1259 328 1224 314 1153 314 c 0
 1075 314 1018 324 982 345 c 1
 894 430 845 560 790 665 c 1
 683 665 l 1
 683 418 l 2
 683 382 777 404 777 368 c 128
 777 345 753 335 730 330 c 0
 712 326 679 324 632 324 c 128
 607 324 577 323 547 323 c 0
 482 323 418 329 418 372 c 0
 418 401 513 385 513 418 c 2
 513 1004 l 2
865 1403 m 0
 1068 1403 1256 1313 1372 1210 c 128
 1487 1107 1593 932 1593 731 c 128
 1593 555 1552 441 1482 334 c 128
 1354 140 1113 -16 809 -16 c 0
 517 -16 277 136 154 322 c 0
 82 431 46 550 46 679 c 0
 46 979 233 1198 446 1308 c 0
 568 1371 708 1403 865 1403 c 0
191 685 m 0
 191 496 266 350 366 252 c 0
 483 137 630 80 810 80 c 0
 993 80 1144 139 1264 258 c 0
 1383 376 1443 524 1443 703 c 0
 1443 876 1386 1018 1272 1132 c 0
 1158 1246 1013 1304 836 1304 c 0
 651 1304 497 1245 374 1126 c 0
 252 1008 191 861 191 685 c 0
776 741 m 2
 885 741 964 783 964 887 c 0
 964 977 896 1022 759 1022 c 0
 699 1022 686 1007 683 953 c 1
 683 741 l 1
 776 741 l 2
EndSplineSet
EndChar

StartChar: macron
Encoding: 112 175 111
Width: 841
Flags: HMW
LayerCount: 2
Fore
SplineSet
110 307 m 4
 110 347 149 373 195 373 c 6
 669 373 l 6
 712 373 749 352 749 313 c 4
 749 273 709 247 663 247 c 6
 189 247 l 6
 146 247 110 268 110 307 c 4
EndSplineSet
EndChar

StartChar: degree
Encoding: 113 176 112
Width: 705
Flags: HMW
LayerCount: 2
Fore
SplineSet
233 1256 m 128
 233 1190 281 1151 350 1151 c 128
 419 1151 467 1195 467 1262 c 128
 467 1328 420 1365 351 1365 c 128
 282 1365 233 1322 233 1256 c 128
356 1453 m 0
 499 1453 595 1398 595 1264 c 128
 595 1127 483 1063 349 1063 c 0
 241 1063 168 1099 128 1170 c 0
 115 1194 108 1223 108 1256 c 128
 108 1391 223 1453 356 1453 c 0
EndSplineSet
EndChar

StartChar: plusminus
Encoding: 114 177 113
Width: 870
Flags: HMW
LayerCount: 2
Fore
SplineSet
116 105 m 128
 116 161 151 167 214 167 c 2
 691 167 l 2
 747 167 775 151 775 119 c 0
 775 57 735 51 671 51 c 2
 203 51 l 2
 142 51 116 59 116 105 c 128
512 321 m 2
 512 263 494 233 435 233 c 256
 381 233 354 264 354 325 c 2
 354 551 l 1
 134 551 l 2
 65 551 46 568 46 631 c 0
 46 672 77 693 138 693 c 2
 354 693 l 1
 354 920 l 2
 354 981 378 1011 426 1011 c 0
 491 1011 512 982 512 917 c 2
 512 693 l 1
 729 693 l 2
 795 693 820 678 820 616 c 128
 820 564 783 551 726 551 c 2
 512 551 l 1
 512 321 l 2
EndSplineSet
EndChar

StartChar: twosuperior
Encoding: 115 178 114
Width: 774
Flags: HMW
LayerCount: 2
Fore
SplineSet
420 951 m 128
 566 951 658 861 658 720 c 256
 658 563 511 363 217 120 c 1
 485 120 l 2
 524 120 564 174 576 233 c 1
 585 242 l 1
 640 242 686 201 686 136 c 128
 686 68 649 1 588 1 c 2
 148 1 l 2
 95 1 52 34 52 88 c 0
 52 99 63 117 85 141 c 128
 176 240 295 347 383 456 c 0
 460 552 499 633 499 699 c 256
 499 769 460 819 392 819 c 128
 301 819 234 778 175 746 c 128
 158 737 147 732 140 732 c 128
 109 732 80 745 80 774 c 128
 80 813 119 843 148 862 c 128
 209 902 333 951 420 951 c 128
EndSplineSet
EndChar

StartChar: threesuperior
Encoding: 116 179 115
Width: 809
Flags: HMW
LayerCount: 2
Fore
SplineSet
492 752 m 0
 492 813 438 843 358 843 c 128
 280 843 188 781 142 737 c 1
 123 730 l 1
 99 730 75 751 75 776 c 1
 78 792 l 1
 78 794 l 1
 140 886 257 952 413 952 c 256
 523 952 598 915 639 841 c 0
 653 816 660 785 660 750 c 0
 660 677 611 615 512 564 c 1
 616 538 686 483 720 398 c 0
 732 369 737 333 737 290 c 128
 737 192 686 113 628 66 c 0
 560 12 475 -15 373 -15 c 0
 319 -15 266 -6 215 14 c 128
 137 44 41 81 41 152 c 0
 41 178 56 191 87 191 c 0
 94 191 106 186 122 176 c 128
 138 166 159 154 183 142 c 0
 248 109 311 93 371 93 c 0
 475 93 570 182 570 287 c 0
 570 378 530 438 451 466 c 0
 426 475 404 479 384 479 c 128
 331 479 297 452 256 452 c 128
 229 452 212 479 212 504 c 1
 226 531 l 1
 298 568 388 595 444 648 c 0
 476 679 492 713 492 752 c 0
EndSplineSet
EndChar

StartChar: acute
Encoding: 117 180 116
Width: 527
Flags: HMW
LayerCount: 2
Fore
SplineSet
363 1704 m 128
 440 1704 496 1666 496 1597 c 0
 496 1563 442 1476 333 1335 c 0
 270 1253 222 1196 189 1163 c 128
 156 1130 134 1111 124 1106 c 1
 110 1120 l 1
 110 1125 l 2
 110 1156 127 1226 161 1336 c 128
 212 1501 213 1512 247 1611 c 128
 260 1650 312 1704 363 1704 c 128
EndSplineSet
EndChar

StartChar: mu
Encoding: 118 181 117
Width: 1287
Flags: HMW
LayerCount: 2
Fore
SplineSet
925 149 m 1
 851 41 728 -27 555 -27 c 0
 470 -27 400 -5 346 39 c 1
 355 -71 360 -152 361 -206 c 128
 361 -210 361 -215 361 -219 c 0
 361 -295 348 -348 284 -348 c 128
 181 -348 178 -299 178 -175 c 128
 178 -3 193 217 193 406 c 2
 193 749 l 2
 193 799 169 825 122 828 c 0
 79 830 51 830 51 862 c 0
 51 935 158 964 236 964 c 128
 353 964 386 952 386 838 c 2
 386 433 l 2
 386 330 396 259 417 220 c 128
 459 140 513 109 636 109 c 128
 796 109 893 171 907 312 c 128
 911 352 913 394 913 437 c 2
 912 749 l 2
 912 797 888 824 840 828 c 0
 796 832 770 829 770 861 c 0
 770 935 876 964 955 964 c 128
 1072 964 1105 952 1105 838 c 2
 1106 198 l 2
 1106 152 1130 128 1178 125 c 0
 1225 122 1251 124 1251 86 c 128
 1251 49 1215 25 1185 12 c 0
 1147 -4 1107 -11 1062 -11 c 128
 936 -11 925 17 925 149 c 1
EndSplineSet
EndChar

StartChar: paragraph
Encoding: 119 182 118
Width: 1025
Flags: HMW
LayerCount: 2
Fore
SplineSet
577 66 m 2
 577 21 540 -21 498 -21 c 128
 443 -21 396 -2 396 46 c 2
 395 739 l 1
 292 741 204 763 130 806 c 0
 41 858 -4 935 -4 1036 c 0
 -4 1346 259 1402 595 1402 c 2
 670 1402 l 2
 817 1402 913 1375 958 1322 c 0
 972 1305 979 1288 979 1269 c 128
 979 1184 858 1215 858 1131 c 2
 859 61 l 2
 859 37 852 20 838 8 c 0
 815 -12 794 -22 777 -22 c 128
 723 -22 675 -3 675 46 c 2
 675 1290 l 1
 576 1290 l 1
 577 66 l 2
EndSplineSet
EndChar

StartChar: periodcentered
Encoding: 120 183 119
Width: 486
Flags: HMW
LayerCount: 2
Fore
SplineSet
233 896 m 128
 306 896 385 850 385 791 c 128
 385 722 345 689 294 672 c 128
 277 666 262 663 246 663 c 128
 173 663 104 710 104 775 c 256
 104 809 120 838 152 862 c 0
 182 884 208 896 233 896 c 128
EndSplineSet
EndChar

StartChar: cedilla
Encoding: 121 184 120
Width: 593
Flags: HMW
LayerCount: 2
Fore
SplineSet
329 -306 m 128
 329 -248 237 -234 181 -234 c 1
 201 -178 222 -112 243 -36 c 1
 261 17 l 1
 373 13 l 1
 373 12 l 1
 325 -128 l 1
 326 -131 l 1
 326 -128 l 1
 456 -141 558 -178 558 -291 c 256
 558 -407 440 -465 312 -465 c 0
 245 -465 130 -436 88 -416 c 0
 48 -397 28 -375 28 -352 c 0
 28 -326 51 -307 74 -307 c 0
 88 -307 101 -311 117 -318 c 0
 134 -326 145 -329 148 -329 c 1
 190 -347 223 -356 246 -356 c 128
 284 -356 329 -340 329 -306 c 128
EndSplineSet
EndChar

StartChar: onesuperior
Encoding: 122 185 121
Width: 531
Flags: HMW
LayerCount: 2
Fore
SplineSet
359 124 m 1
 387 109 456 105 456 70 c 0
 456 23 412 0 325 0 c 2
 233 0 l 2
 142 0 96 23 96 70 c 0
 96 88 121 103 171 115 c 0
 182 118 191 121 197 124 c 1
 197 772 l 1
 173 782 96 796 96 820 c 0
 96 853 124 879 180 899 c 0
 223 914 258 922 284 922 c 128
 346 922 359 908 359 851 c 2
 359 124 l 1
EndSplineSet
EndChar

StartChar: ordmasculine
Encoding: 123 186 122
Width: 1040
Flags: HMW
LayerCount: 2
Fore
SplineSet
958 950 m 0
 958 697 757 528 500 528 c 0
 248 528 83 709 83 947 c 0
 83 1193 285 1358 538 1358 c 0
 779 1358 958 1191 958 950 c 0
505 1256 m 0
 350 1256 265 1127 265 966 c 0
 265 788 371 634 535 634 c 0
 692 634 782 760 782 921 c 0
 782 1101 677 1256 505 1256 c 0
EndSplineSet
EndChar

StartChar: guillemotright
Encoding: 124 187 123
Width: 1192
Flags: HMW
LayerCount: 2
Fore
SplineSet
635 100 m 128
 601 100 572 120 572 152 c 128
 572 166 580 184 597 205 c 128
 661 284 757 362 839 426 c 0
 899 472 944 505 975 524 c 1
 936 545 880 584 808 640 c 128
 736 696 687 736 661 760 c 0
 602 814 572 850 572 868 c 128
 572 901 595 926 626 926 c 128
 670 926 713 898 750 876 c 128
 869 807 992 718 1086 624 c 0
 1132 578 1156 546 1156 530 c 128
 1156 514 1150 498 1137 480 c 128
 1085 405 1002 337 928 278 c 128
 873 235 811 189 752 154 c 0
 693 118 654 100 635 100 c 128
152 100 m 128
 118 100 89 120 89 152 c 128
 89 166 97 183 114 204 c 128
 178 283 274 361 356 425 c 0
 418 473 462 506 491 524 c 1
 449 546 393 585 323 641 c 128
 253 697 204 736 178 760 c 0
 119 814 89 850 89 868 c 128
 89 901 113 926 144 926 c 128
 188 926 231 898 268 876 c 128
 387 807 510 718 604 624 c 0
 650 578 673 546 673 530 c 128
 673 514 667 498 654 480 c 128
 602 405 519 337 445 278 c 128
 390 235 327 189 268 154 c 0
 209 118 171 100 152 100 c 128
EndSplineSet
EndChar

StartChar: AE
Encoding: 135 198 134
Width: 2308
Flags: HMW
LayerCount: 2
Fore
SplineSet
2180 356 m 0
 2232 356 2258 324 2258 261 c 128
 2258 198 2230 138 2176 81 c 128
 2122 24 2059 -4 1988 -4 c 2
 1227 0 l 2
 1132 0 1072 3 1045 10 c 0
 994 23 969 49 969 90 c 0
 969 110 982 123 1008 128 c 0
 1019 130 1031 133 1044 134 c 0
 1094 139 1119 166 1119 215 c 2
 1119 470 l 1
 535 470 l 1
 395 283 321 181 315 164 c 128
 309 147 309 137 317 134 c 1
 317 135 l 1
 328 127 342 120 361 116 c 128
 380 112 393 108 398 105 c 128
 403 102 404 97 401 89 c 0
 379 30 293 0 143 0 c 0
 37 0 -16 22 -16 65 c 0
 -16 73 -14 81 -10 91 c 128
 -6 101 10 110 38 117 c 128
 66 124 92 135 118 147 c 128
 144 159 171 184 200 221 c 1
 994 1280 l 1
 994 1299 997 1315 1001 1327 c 0
 1020 1378 1081 1404 1186 1404 c 2
 2060 1404 l 2
 2113 1404 2154 1383 2184 1342 c 128
 2214 1301 2229 1253 2229 1198 c 0
 2229 1099 2195 1050 2126 1050 c 0
 2081 1050 2051 1064 2036 1093 c 128
 2021 1122 2013 1161 2013 1211 c 2
 2013 1262 l 1
 2014 1286 l 1
 1338 1286 l 1
 1338 787 l 1
 1767 787 l 1
 1773 793 1783 811 1799 841 c 128
 1815 871 1827 892 1835 904 c 128
 1843 916 1851 921 1858 921 c 0
 1933 921 1971 857 1971 729 c 0
 1971 644 1954 585 1919 550 c 0
 1904 535 1889 528 1873 528 c 128
 1857 528 1845 534 1835 544 c 128
 1825 554 1809 585 1787 635 c 1
 1786 636 l 2
 1786 637 1779 649 1766 672 c 1
 1338 672 l 1
 1338 131 l 1
 1977 131 l 1
 1988 142 2007 170 2035 215 c 128
 2063 260 2088 295 2110 319 c 128
 2132 343 2155 356 2180 356 c 0
1121 1244 m 1
 1121 1280 l 1
 609 566 l 1
 1119 566 l 1
 1119 1190 l 2
 1119 1209 1120 1227 1121 1244 c 1
EndSplineSet
EndChar

StartChar: multiply
Encoding: 152 215 151
Width: 716
Flags: HMW
LayerCount: 2
Fore
SplineSet
654 407 m 128
 654 362 613 323 574 323 c 128
 554 323 532 335 509 358 c 2
 349 519 l 1
 191 361 l 2
 165 335 146 322 134 322 c 128
 95 322 55 362 55 392 c 0
 55 414 68 438 93 463 c 2
 249 620 l 1
 88 780 l 2
 63 803 51 822 51 838 c 128
 51 884 92 922 132 922 c 128
 149 922 171 909 196 884 c 2
 355 725 l 1
 511 882 l 2
 537 908 558 921 572 921 c 128
 613 921 650 880 650 848 c 0
 650 829 636 806 609 779 c 2
 455 624 l 1
 618 462 l 2
 642 438 654 420 654 407 c 128
EndSplineSet
EndChar

StartChar: Oslash
Encoding: 153 216 152
Width: 1762
Flags: HMW
LayerCount: 2
Fore
SplineSet
487 -179 m 128
 451 -179 420 -159 420 -125 c 128
 420 -109 423 -94 430 -81 c 2
 1189 1516 l 2
 1200 1541 1217 1553 1239 1553 c 0
 1288 1553 1313 1533 1313 1493 c 0
 1313 1486 1311 1477 1308 1466 c 1
 536 -139 l 2
 523 -166 506 -179 487 -179 c 128
1488 672 m 0
 1488 928 1360 1107 1196 1204 c 0
 1095 1263 979 1293 846 1293 c 0
 664 1293 518 1236 408 1120 c 0
 306 1012 254 877 254 714 c 0
 254 551 310 411 423 294 c 0
 541 171 694 110 880 110 c 0
 1057 110 1203 166 1320 278 c 0
 1432 385 1488 517 1488 672 c 0
1602 354 m 128
 1468 134 1220 -25 869 -25 c 128
 619 -25 425 47 282 158 c 128
 231 198 188 244 151 294 c 0
 74 400 35 514 35 637 c 128
 35 896 133 1075 274 1202 c 0
 432 1345 633 1416 876 1416 c 0
 1251 1416 1576 1239 1678 947 c 0
 1699 887 1710 822 1710 750 c 128
 1710 592 1665 458 1602 354 c 128
EndSplineSet
EndChar

StartChar: Thorn
Encoding: 159 222 158
Width: 1338
Flags: HMW
LayerCount: 2
Fore
SplineSet
466 1154 m 1
 568 1154 l 2
 800 1154 894 1150 1046 1108 c 128
 1096 1094 1140 1076 1178 1051 c 0
 1260 997 1301 921 1301 822 c 0
 1301 652 1203 537 1006 478 c 0
 884 442 725 424 529 424 c 2
 466 424 l 1
 466 172 l 2
 466 151 494 137 549 128 c 128
 604 119 632 106 632 90 c 0
 632 49 606 23 556 12 c 0
 523 5 455 1 353 1 c 256
 251 1 185 4 156 10 c 128
 114 19 73 39 73 80 c 128
 73 133 155 125 196 136 c 0
 225 144 240 156 240 172 c 2
 240 1232 l 2
 240 1252 212 1267 156 1276 c 128
 100 1285 73 1297 73 1314 c 0
 73 1355 99 1381 150 1392 c 0
 183 1399 251 1403 353 1403 c 256
 455 1403 521 1400 550 1394 c 128
 592 1385 632 1365 632 1324 c 128
 632 1272 549 1279 509 1268 c 0
 480 1260 466 1248 466 1232 c 2
 466 1154 l 1
466 543 m 1
 488 541 512 540 537 540 c 2
 586 540 l 2
 820 540 970 585 1037 676 c 0
 1062 710 1075 754 1075 804 c 128
 1075 910 1014 963 936 994 c 0
 865 1022 764 1035 634 1035 c 2
 552 1035 l 2
 500 1035 472 1031 466 1023 c 1
 466 543 l 1
EndSplineSet
EndChar

StartChar: germandbls
Encoding: 160 223 159
Width: 1180
Flags: HMW
LayerCount: 2
Fore
SplineSet
942 296 m 128
 942 548 774 717 537 717 c 0
 517 717 507 730 507 757 c 0
 507 798 529 817 570 827 c 128
 664 850 780 930 780 1035 c 128
 780 1188 703 1305 561 1305 c 0
 505 1305 466 1288 442 1254 c 0
 415 1215 401 1144 401 1041 c 2
 401 90 l 2
 401 11 373 -2 299 -2 c 0
 282 -2 263 -1 241 0 c 128
 126 4 32 2 32 90 c 0
 32 138 107 128 143 144 c 0
 169 155 182 179 182 215 c 2
 182 950 l 2
 182 1260 270 1404 567 1404 c 0
 762 1404 953 1279 953 1091 c 0
 953 1019 940 965 913 929 c 0
 861 859 774 807 652 773 c 1
 913 756 1143 622 1143 360 c 0
 1143 133 1006 -27 781 -27 c 0
 634 -27 475 50 475 188 c 0
 475 259 527 292 587 292 c 128
 651 292 697 238 697 175 c 128
 697 144 695 110 692 76 c 1
 719 65 744 59 768 59 c 0
 819 59 862 86 896 139 c 0
 927 187 942 239 942 296 c 128
EndSplineSet
EndChar

StartChar: ae
Encoding: 167 230 166
Width: 1689
Flags: HMW
LayerCount: 2
Fore
SplineSet
378 -24 m 128
 201 -24 62 74 62 242 c 0
 62 355 121 435 238 482 c 0
 301 507 362 523 423 531 c 128
 526 545 668 554 721 582 c 1
 721 677 713 742 698 776 c 128
 669 841 623 880 532 880 c 0
 531 880 531 880 530 880 c 128
 381 879 316 812 316 661 c 1
 317 639 l 1
 292 636 272 634 257 634 c 128
 186 634 107 675 107 737 c 128
 107 872 244 923 351 952 c 0
 409 968 471 976 540 976 c 0
 696 976 800 925 853 823 c 1
 949 925 1071 976 1219 976 c 0
 1445 976 1625 812 1625 588 c 0
 1625 525 1572 507 1497 507 c 2
 918 507 l 1
 921 295 1071 123 1283 123 c 0
 1352 123 1419 143 1485 184 c 0
 1519 205 1540 216 1549 216 c 256
 1569 216 1603 196 1603 166 c 128
 1603 162 1598 154 1590 138 c 128
 1567 95 1495 46 1444 22 c 0
 1374 -11 1298 -27 1216 -27 c 128
 1036 -27 894 60 815 171 c 1
 724 44 582 -24 378 -24 c 128
475 80 m 0
 571 80 642 131 676 198 c 0
 706 257 721 356 721 492 c 1
 626 458 420 450 346 403 c 0
 299 373 275 323 275 252 c 0
 275 137 342 80 475 80 c 0
1162 608 m 2
 1256 608 1349 609 1441 612 c 1
 1439 730 1395 810 1308 851 c 0
 1280 864 1249 871 1214 871 c 128
 1059 871 935 742 928 608 c 1
 1162 608 l 2
EndSplineSet
EndChar

StartChar: eth
Encoding: 177 240 176
Width: 1166
Flags: HMW
LayerCount: 2
Back
SplineSet
540 -25 m 4
 235.066308743 -25 38 190.656355923 38 479 c 4
 38 778.275390625 279.573242188 974 586 974 c 4
 877.14453125 974 1092 774.024414062 1092 483 c 4
 1092 177.442126318 850.296561102 -25 540 -25 c 4
897 447 m 4
 897 674.099997034 765.206907848 868 547 868 c 4
 350.26171875 868 242 706.421875 242 501.5 c 4
 242 276.478515625 376.044921875 86 583 86 c 4
 782.93359375 86 897 239.9140625 897 447 c 4
EndSplineSet
Fore
SplineSet
534 1425 m 1
 482 1456 347 1530 266 1530 c 0
 227 1530 200 1513 200 1466 c 0
 200 1442 212 1426 235 1419 c 0
 324 1393 406 1362 480 1323 c 1
 406 1185 l 2
 396 1167 393 1150 393 1136 c 0
 393 1099 420 1075 450 1075 c 0
 473 1075 497 1089 514 1120 c 2
 587 1255 l 1
 707 1173 839 1051 880 819 c 1
 774 912 658 959 533 959 c 0
 254 959 38 770 38 473 c 0
 38 185 239 -25 563 -25 c 0
 941 -25 1104 229 1104 603 c 0
 1104 959 914 1216 647 1368 c 1
 721 1506 l 2
 731 1524 735 1540 735 1555 c 0
 735 1592 708 1616 678 1616 c 0
 655 1616 630 1602 613 1571 c 2
 534 1425 l 1
603 87 m 0
 385 87 242 251 242 494 c 0
 242 719 381 850 568 850 c 0
 667 850 778 811 890 727 c 1
 905 664 914 598 914 535 c 0
 914 297 825 87 603 87 c 0
EndSplineSet
EndChar

StartChar: oslash
Encoding: 185 248 184
Width: 1119
Flags: HMW
LayerCount: 2
Fore
SplineSet
887 1158 m 0
 911 1158 941 1139 941 1116 c 128
 941 1106 938 1093 933 1077 c 1
 320 -169 l 2
 306 -198 286 -213 259 -213 c 0
 236 -213 213 -195 213 -172 c 0
 213 -153 217 -136 224 -121 c 2
 824 1117 l 2
 837 1144 858 1158 887 1158 c 0
578 974 m 0
 869 974 1084 774 1084 483 c 0
 1084 330 1030 206 923 112 c 0
 819 21 689 -25 532 -25 c 0
 371 -25 250 35 168 120 c 0
 76 215 30 334 30 479 c 0
 30 778 272 974 578 974 c 0
539 868 m 0
 342 868 234 707 234 502 c 0
 234 277 368 86 575 86 c 0
 775 86 889 240 889 447 c 0
 889 559 861 654 804 733 c 0
 740 823 651 868 539 868 c 0
EndSplineSet
EndChar

StartChar: thorn
Encoding: 191 254 190
Width: 1131
Flags: HMW
LayerCount: 2
Fore
SplineSet
595 107 m 0
 780 107 882 244 882 433 c 0
 882 550 850 650 786 731 c 0
 724 810 651 850 568 850 c 128
 485 850 407 817 337 752 c 1
 337 201 l 1
 417 138 503 107 595 107 c 0
665 981 m 0
 939 981 1098 781 1098 502 c 0
 1098 355 1052 230 960 130 c 0
 870 31 762 -18 635 -18 c 0
 536 -18 438 10 341 66 c 1
 341 -345 l 2
 341 -399 246 -448 185 -448 c 0
 149 -448 147 -397 147 -357 c 2
 147 1247 l 2
 147 1307 124 1340 76 1345 c 0
 32 1350 4 1347 4 1378 c 0
 4 1449 111 1482 186 1482 c 128
 273 1482 338 1482 338 1407 c 2
 338 854 l 1
 438 939 547 981 665 981 c 0
EndSplineSet
EndChar

StartChar: dotlessi
Encoding: 238 305 192
Width: 595
Flags: HMW
LayerCount: 2
Fore
SplineSet
242 964 m 128
 329 964 393 964 393 889 c 2
 393 191 l 2
 393 150 415 129 458 126 c 0
 503 123 522 118 522 78 c 128
 522 40 494 20 461 11 c 0
 434 4 393 0 336 0 c 128
 308 0 279 -1 250 -1 c 0
 159 -1 74 8 74 84 c 0
 74 133 133 120 170 134 c 0
 192 142 203 162 203 191 c 2
 203 729 l 2
 203 789 180 822 132 827 c 0
 88 832 60 829 60 860 c 0
 60 931 167 964 242 964 c 128
EndSplineSet
EndChar

StartChar: Lslash
Encoding: 254 321 193
Width: 1386
Flags: HMW
LayerCount: 2
Fore
SplineSet
136 498 m 128
 104 498 76 534 76 569 c 0
 76 608 96 635 137 649 c 2
 608 801 l 2
 620 804 630 806 639 806 c 0
 677 806 703 775 703 730 c 0
 703 694 683 669 642 656 c 2
 172 504 l 2
 161 500 149 498 136 498 c 128
1354 269 m 128
 1354 128 1245 -4 1118 -4 c 2
 377 0 l 2
 275 0 209 3 180 10 c 128
 137 20 95 40 95 84 c 128
 95 120 135 123 165 132 c 0
 215 147 245 169 256 197 c 1
 265 236 269 274 269 312 c 2
 269 1093 l 2
 269 1180 254 1232 222 1249 c 0
 191 1266 151 1277 117 1288 c 128
 102 1293 95 1303 95 1320 c 128
 95 1362 135 1383 174 1392 c 0
 207 1400 275 1404 377 1404 c 256
 481 1404 547 1401 576 1394 c 128
 619 1384 662 1364 662 1321 c 128
 662 1287 626 1282 598 1274 c 128
 565 1264 535 1260 516 1236 c 0
 497 1213 488 1165 488 1093 c 2
 488 167 l 2
 488 150 494 139 507 134 c 0
 529 125 568 121 622 121 c 0
 641 121 662 122 685 123 c 128
 832 130 874 130 986 141 c 0
 1065 149 1111 157 1125 166 c 1
 1148 193 1165 244 1184 279 c 0
 1212 330 1245 356 1284 356 c 0
 1333 356 1354 321 1354 269 c 128
EndSplineSet
EndChar

StartChar: lslash
Encoding: 255 322 194
Width: 659
Flags: HMW
LayerCount: 2
Fore
SplineSet
104 669 m 128
 72 669 44 705 44 740 c 0
 44 779 64 806 105 820 c 2
 516 972 l 1
 528 975 538 977 547 977 c 0
 589 977 611 943 611 894 c 128
 611 860 581 836 550 827 c 1
 140 675 l 2
 129 671 117 669 104 669 c 128
370 0 m 128
 342 0 313 -1 284 -1 c 0
 193 -1 108 8 108 84 c 0
 108 133 166 119 203 134 c 0
 225 143 236 162 236 191 c 2
 236 1247 l 2
 236 1307 212 1340 164 1345 c 0
 120 1350 93 1347 93 1378 c 0
 93 1449 200 1482 275 1482 c 128
 362 1482 427 1482 427 1407 c 2
 427 191 l 2
 427 150 449 129 492 126 c 0
 537 123 556 118 556 78 c 128
 556 40 528 20 495 11 c 0
 468 4 427 0 370 0 c 128
EndSplineSet
EndChar

StartChar: OE
Encoding: 268 338 195
Width: 2158
Flags: HMW
LayerCount: 2
Fore
SplineSet
2033 342 m 128
 2091 342 2117 309 2117 251 c 128
 2117 182 2079 115 2041 76 c 0
 1990 22 1930 -4 1862 -4 c 2
 1167 0 l 1
 797 0 l 2
 585 0 407 54 262 163 c 0
 110 278 33 427 33 610 c 0
 33 812 107 978 254 1108 c 0
 400 1236 585 1300 810 1300 c 2
 1929 1300 l 2
 2030 1300 2091 1209 2091 1103 c 0
 2091 1020 2066 960 1988 960 c 128
 1898 960 1878 1018 1878 1115 c 1
 1879 1175 l 1
 1276 1175 l 1
 1276 757 l 1
 1277 736 l 1
 1657 736 l 1
 1680 759 1713 858 1744 858 c 0
 1817 858 1854 797 1854 674 c 0
 1854 594 1838 537 1804 504 c 0
 1790 490 1773 483 1756 483 c 128
 1720 483 1707 513 1694 538 c 128
 1682 560 1668 594 1657 614 c 1
 1276 614 l 1
 1276 136 l 1
 1849 136 l 1
 1896 185 1961 342 2033 342 c 128
1055 139 m 1
 1059 268 1061 394 1061 516 c 2
 1061 924 l 1
 1062 1161 l 1
 991 1168 906 1171 805 1171 c 128
 609 1171 483 1117 388 1020 c 0
 295 925 249 805 249 661 c 0
 249 519 300 399 401 298 c 0
 507 192 645 139 814 139 c 2
 1055 139 l 1
EndSplineSet
EndChar

StartChar: florin
Encoding: 311 402 202
Width: 1097
Flags: HMW
LayerCount: 2
Fore
SplineSet
1134 1329 m 0
 1134 1258 1067 1196 997 1196 c 0
 940 1196 911 1220 911 1268 c 0
 911 1280 915 1301 923 1332 c 1
 900 1343 876 1348 851 1348 c 0
 730 1348 670 1250 670 1054 c 0
 670 1020 672 990 675 962 c 1
 835 962 l 2
 876 962 897 952 897 932 c 0
 897 904 882 880 854 859 c 0
 833 844 816 836 801 836 c 2
 653 836 l 1
 587 500 510 267 423 138 c 0
 369 57 310 8 247 -12 c 0
 216 -22 189 -27 164 -27 c 128
 76 -27 4 6 4 87 c 0
 4 153 66 210 132 210 c 0
 187 210 215 186 215 138 c 1
 208 125 205 103 205 74 c 1
 261 74 309 161 348 334 c 0
 359 381 369 428 378 474 c 1
 462 833 l 1
 392 833 l 2
 362 833 347 848 347 877 c 0
 347 913 368 941 392 951 c 0
 409 958 445 962 500 962 c 1
 543 1109 l 1
 585 1278 673 1387 807 1436 c 0
 850 1452 889 1459 924 1459 c 128
 1035 1459 1134 1429 1134 1329 c 0
EndSplineSet
EndChar

StartChar: circumflex
Encoding: 314 710 203
Width: 907
Flags: HMW
LayerCount: 2
Fore
SplineSet
82 1275 m 1
 114 1349 395 1709 456 1709 c 256
 497 1709 814 1306 824 1275 c 1
 803 1263 l 1
 774 1265 689 1315 548 1411 c 1
 512 1435 l 1
 512 1434 l 1
 456 1474 l 1
 422 1451 l 1
 346 1405 195 1271 111 1263 c 1
 82 1275 l 1
EndSplineSet
EndChar

StartChar: caron
Encoding: 315 711 204
Width: 761
Flags: HMW
LayerCount: 2
Fore
SplineSet
754 1695 m 1
 714 1594 491 1353 425 1290 c 128
 405 1271 392 1262 385 1262 c 128
 378 1262 363 1272 343 1290 c 128
 241 1383 67 1577 12 1695 c 1
 40 1708 l 1
 78 1705 262 1580 286 1564 c 2
 386 1498 l 1
 436 1534 l 1
 478 1560 l 2
 534 1597 671 1704 733 1708 c 1
 754 1695 l 1
EndSplineSet
EndChar

StartChar: breve
Encoding: 316 728 205
Width: 1003
Flags: HMW
LayerCount: 2
Fore
SplineSet
920 417 m 1
 915 185 750 60 508 60 c 0
 266 60 107 189 102 417 c 1
 235 417 l 1
 246 300 373 239 511 239 c 256
 619 239 700 270 752 330 c 0
 772 353 784 382 787 417 c 1
 920 417 l 1
EndSplineSet
EndChar

StartChar: dotaccent
Encoding: 317 729 206
Width: 461
Flags: HMW
LayerCount: 2
Fore
SplineSet
228 464 m 128
 301 464 380 418 380 359 c 128
 380 290 340 257 289 240 c 128
 272 234 256 231 240 231 c 128
 167 231 99 278 99 343 c 256
 99 377 114 406 146 430 c 0
 176 452 203 464 228 464 c 128
EndSplineSet
EndChar

StartChar: ring
Encoding: 318 730 207
Width: 705
Flags: HMW
LayerCount: 2
Fore
SplineSet
233 1256 m 128
 233 1190 281 1151 350 1151 c 128
 419 1151 467 1195 467 1262 c 128
 467 1328 420 1365 351 1365 c 128
 282 1365 233 1322 233 1256 c 128
356 1453 m 0
 499 1453 595 1398 595 1264 c 128
 595 1127 483 1063 349 1063 c 0
 241 1063 168 1099 128 1170 c 0
 115 1194 108 1223 108 1256 c 128
 108 1391 223 1453 356 1453 c 0
EndSplineSet
EndChar

StartChar: ogonek
Encoding: 319 731 208
Width: 555
Flags: HMW
LayerCount: 2
Fore
SplineSet
212 -235 m 0
 212 -293 264 -305 335 -305 c 128
 361 -305 405 -294 467 -272 c 1
 501 -384 l 1
 501 -384 447 -409 433 -414 c 0
 376 -435 327 -446 285 -446 c 128
 150 -446 40 -398 40 -275 c 0
 40 -227 79 -161 158 -79 c 1
 193 -44 232 -10 277 25 c 1
 413 25 l 1
 370 -3 333 -35 302 -71 c 0
 242 -139 212 -194 212 -235 c 0
EndSplineSet
EndChar

StartChar: tilde
Encoding: 320 732 209
Width: 958
Flags: HMW
LayerCount: 2
Fore
SplineSet
333 1366 m 128
 459 1366 635 1276 737 1276 c 0
 780 1276 834 1319 855 1323 c 1
 875 1316 l 1
 828 1225 738 1146 605 1146 c 128
 466 1146 373 1235 238 1235 c 128
 175 1235 144 1196 104 1189 c 1
 85 1196 l 1
 127 1288 206 1366 333 1366 c 128
EndSplineSet
EndChar

StartChar: hungarumlaut
Encoding: 321 733 210
Width: 858
Flags: HMW
LayerCount: 2
Fore
SplineSet
363 1704 m 128
 440 1704 496 1666 496 1597 c 0
 496 1563 442 1476 333 1335 c 0
 270 1253 222 1196 189 1163 c 128
 156 1130 134 1111 124 1106 c 1
 110 1120 l 1
 110 1125 l 2
 110 1156 127 1226 161 1336 c 128
 212 1501 213 1512 247 1611 c 128
 260 1650 312 1704 363 1704 c 128
694 1704 m 128
 771 1704 827 1666 827 1597 c 0
 827 1555 751 1441 600 1254 c 0
 528 1165 480 1116 455 1106 c 1
 441 1120 l 1
 441 1125 l 1
 444 1166 462 1239 494 1344 c 128
 543 1503 544 1514 578 1611 c 128
 591 1650 643 1704 694 1704 c 128
EndSplineSet
EndChar

StartChar: endash
Encoding: 326 8211 211
Width: 841
Flags: HMW
LayerCount: 2
Fore
SplineSet
110 307 m 0
 110 347 149 373 195 373 c 2
 669 373 l 2
 712 373 749 352 749 313 c 0
 749 273 709 247 663 247 c 2
 189 247 l 2
 146 247 110 268 110 307 c 0
EndSplineSet
EndChar

StartChar: emdash
Encoding: 327 8212 212
Width: 1214
Flags: HMW
LayerCount: 2
Fore
SplineSet
110 307 m 0
 110 347 149 373 195 373 c 2
 1042 373 l 2
 1085 373 1122 352 1122 313 c 0
 1122 273 1082 247 1036 247 c 2
 189 247 l 2
 146 247 110 268 110 307 c 0
EndSplineSet
EndChar

StartChar: quoteleft
Encoding: 328 8216 213
Width: 461
Flags: HMW
LayerCount: 2
Fore
SplineSet
90 1079 m 1
 90 1196 175 1298 288 1298 c 0
 314 1298 326 1290 326 1275 c 0
 326 1255 306 1244 294 1232 c 0
 271 1210 259 1183 258 1151 c 1
 322 1148 375 1123 375 1060 c 128
 375 988 298 953 229 953 c 0
 145 953 98 995 90 1079 c 1
EndSplineSet
EndChar

StartChar: quoteright
Encoding: 329 8217 214
Width: 467
Flags: HMW
LayerCount: 2
Fore
SplineSet
374 1172 m 1
 374 1055 289 953 176 953 c 0
 150 953 138 961 138 976 c 0
 138 996 158 1007 170 1019 c 0
 193 1041 205 1068 206 1100 c 1
 143 1103 89 1127 89 1190 c 128
 89 1263 165 1298 235 1298 c 0
 319 1298 366 1256 374 1172 c 1
EndSplineSet
EndChar

StartChar: quotesinglbase
Encoding: 330 8218 215
Width: 399
Flags: HMW
LayerCount: 2
Fore
SplineSet
99 123 m 1
 99 193 133 250 204 250 c 256
 273 250 310 189 310 131 c 1
 240 -311 l 1
 238 -334 225 -359 203 -359 c 0
 183 -359 172 -344 169 -315 c 1
 99 123 l 1
EndSplineSet
EndChar

StartChar: quotedblleft
Encoding: 331 8220 216
Width: 826
Flags: HMW
LayerCount: 2
Fore
SplineSet
90 1079 m 1
 90 1196 175 1298 288 1298 c 0
 314 1298 326 1290 326 1275 c 0
 326 1255 306 1244 294 1232 c 0
 271 1210 259 1183 258 1151 c 1
 322 1148 375 1123 375 1060 c 128
 375 988 298 953 229 953 c 0
 145 953 98 995 90 1079 c 1
455 1079 m 1
 455 1196 539 1298 652 1298 c 0
 678 1298 691 1290 691 1275 c 0
 691 1255 670 1244 658 1232 c 0
 635 1210 624 1183 623 1151 c 1
 687 1148 740 1123 740 1060 c 128
 740 988 663 953 594 953 c 0
 510 953 463 995 455 1079 c 1
EndSplineSet
EndChar

StartChar: quotedblright
Encoding: 332 8221 217
Width: 832
Flags: HMW
LayerCount: 2
Fore
SplineSet
739 1172 m 1
 739 1055 655 953 542 953 c 0
 516 953 503 961 503 976 c 0
 503 996 524 1007 536 1019 c 0
 559 1041 570 1068 571 1100 c 1
 508 1103 454 1127 454 1190 c 128
 454 1263 530 1298 600 1298 c 0
 684 1298 731 1256 739 1172 c 1
374 1172 m 1
 374 1055 289 953 176 953 c 0
 150 953 138 961 138 976 c 0
 138 996 158 1007 170 1019 c 0
 193 1041 205 1068 206 1100 c 1
 143 1103 89 1127 89 1190 c 128
 89 1263 165 1298 235 1298 c 0
 319 1298 366 1256 374 1172 c 1
EndSplineSet
EndChar

StartChar: quotedblbase
Encoding: 333 8222 218
Width: 799
Flags: HMW
LayerCount: 2
Fore
SplineSet
99 123 m 1
 99 193 133 250 204 250 c 256
 273 250 310 189 310 131 c 1
 240 -311 l 1
 238 -334 225 -359 203 -359 c 0
 183 -359 172 -344 169 -315 c 1
 99 123 l 1
499 123 m 1
 499 193 533 250 604 250 c 256
 673 250 710 189 710 131 c 1
 640 -311 l 1
 638 -334 625 -359 603 -359 c 0
 583 -359 572 -344 569 -315 c 1
 499 123 l 1
EndSplineSet
EndChar

StartChar: dagger
Encoding: 334 8224 219
Width: 845
Flags: HMW
LayerCount: 2
Fore
SplineSet
849 972 m 0
 849 961 849 948 849 936 c 0
 849 869 845 792 791 792 c 0
 767 792 768 817 765 838 c 0
 761 868 744 883 716 883 c 2
 506 883 l 1
 506 185 l 2
 506 152 532 132 582 126 c 0
 623 121 657 119 657 90 c 0
 657 27 593 -4 465 -4 c 1
 361 -1 l 1
 252 -1 198 29 198 90 c 0
 198 129 281 120 309 130 c 0
 335 139 348 158 348 185 c 2
 348 883 l 1
 128 883 l 2
 80 883 80 844 72 807 c 128
 70 798 64 793 53 793 c 0
 15 793 -4 834 -4 917 c 0
 -4 928 -4 941 -4 954 c 0
 -4 1023 0 1106 53 1106 c 0
 66 1106 75 1090 79 1060 c 128
 83 1030 99 1015 128 1015 c 2
 348 1014 l 1
 348 1220 l 2
 348 1256 323 1277 273 1282 c 0
 231 1286 198 1286 198 1314 c 0
 198 1377 258 1408 378 1408 c 1
 480 1405 l 1
 598 1405 657 1375 657 1314 c 0
 657 1277 573 1286 545 1276 c 0
 519 1267 506 1248 506 1220 c 2
 506 1014 l 1
 716 1014 l 2
 764 1014 762 1055 772 1091 c 128
 775 1100 781 1105 792 1105 c 0
 830 1105 849 1061 849 972 c 0
EndSplineSet
EndChar

StartChar: daggerdbl
Encoding: 335 8225 220
Width: 989
Flags: HMW
LayerCount: 2
Fore
SplineSet
72 924 m 0
 72 934 72 945 72 956 c 0
 72 1024 76 1106 129 1106 c 0
 142 1106 151 1090 155 1060 c 128
 159 1030 175 1015 204 1015 c 2
 424 1014 l 1
 424 1220 l 2
 424 1256 399 1277 349 1282 c 0
 307 1286 274 1286 274 1314 c 0
 274 1377 334 1408 454 1408 c 1
 556 1405 l 1
 674 1405 733 1375 733 1314 c 0
 733 1277 649 1286 621 1276 c 0
 595 1267 582 1248 582 1220 c 2
 582 1014 l 1
 792 1014 l 2
 840 1014 838 1055 848 1091 c 128
 851 1100 857 1105 868 1105 c 0
 906 1105 925 1065 925 986 c 2
 925 935 l 2
 925 853 906 812 867 812 c 0
 843 812 844 837 841 858 c 0
 837 888 820 903 792 903 c 2
 582 903 l 1
 582 553 l 1
 792 553 l 2
 840 553 838 594 848 630 c 128
 851 639 857 644 868 644 c 0
 906 644 925 604 925 525 c 2
 925 474 l 2
 925 392 906 351 867 351 c 0
 843 351 844 375 841 396 c 0
 837 426 820 442 792 442 c 2
 582 442 l 1
 582 185 l 2
 582 152 608 132 658 126 c 0
 699 121 733 119 733 90 c 0
 733 27 669 -4 541 -4 c 1
 437 -1 l 1
 328 -1 274 29 274 90 c 0
 274 129 357 120 385 130 c 0
 411 139 424 158 424 185 c 2
 424 442 l 1
 204 442 l 2
 156 442 156 403 148 366 c 128
 146 357 140 352 129 352 c 0
 91 352 72 389 72 463 c 0
 72 473 72 484 72 495 c 0
 72 563 76 645 129 645 c 0
 142 645 151 630 155 600 c 128
 159 570 175 554 204 554 c 2
 424 553 l 1
 424 903 l 1
 204 903 l 2
 156 903 156 864 148 827 c 128
 146 818 140 813 129 813 c 0
 91 813 72 850 72 924 c 0
EndSplineSet
EndChar

StartChar: bullet
Encoding: 336 8226 221
Width: 775
Flags: HMW
LayerCount: 2
Fore
SplineSet
93 667 m 256
 93 836 221 953 392 953 c 0
 568 953 681 832 681 667 c 256
 681 501 562 381 395 381 c 0
 222 381 93 497 93 667 c 256
EndSplineSet
EndChar

StartChar: ellipsis
Encoding: 337 8230 222
Width: 2052
Flags: HMW
LayerCount: 2
Fore
SplineSet
224 233 m 128
 297 233 376 187 376 128 c 128
 376 59 336 25 285 8 c 128
 268 2 252 0 236 0 c 128
 163 0 95 47 95 112 c 256
 95 146 110 176 142 200 c 0
 172 222 199 233 224 233 c 128
1172 118 m 128
 1172 47 1103 0 1032 0 c 128
 959 0 891 47 891 112 c 256
 891 182 965 232 1036 232 c 0
 1052 232 1067 229 1082 224 c 0
 1131 207 1172 171 1172 118 c 128
1968 118 m 128
 1968 47 1899 0 1828 0 c 128
 1755 0 1687 47 1687 112 c 256
 1687 182 1761 232 1832 232 c 0
 1848 232 1863 229 1878 224 c 0
 1927 207 1968 171 1968 118 c 128
EndSplineSet
EndChar

StartChar: guilsinglleft
Encoding: 338 8249 223
Width: 732
Flags: HMW
LayerCount: 2
Fore
SplineSet
559 928 m 128
 602 928 640 904 640 866 c 128
 640 851 632 834 618 816 c 128
 563 745 478 674 404 617 c 0
 343 570 297 539 267 522 c 1
 315 496 371 454 434 397 c 128
 497 340 540 300 563 276 c 128
 586 252 604 230 618 211 c 128
 632 192 640 174 640 158 c 128
 640 125 605 96 571 96 c 128
 553 96 528 105 496 122 c 128
 378 184 251 282 157 372 c 0
 80 445 42 495 42 522 c 0
 42 547 80 594 157 664 c 0
 219 721 283 772 349 815 c 0
 463 890 533 928 559 928 c 128
EndSplineSet
EndChar

StartChar: guilsinglright
Encoding: 339 8250 224
Width: 728
Flags: HMW
LayerCount: 2
Fore
SplineSet
175 96 m 128
 132 96 94 120 94 158 c 128
 94 174 102 192 116 211 c 128
 172 286 256 361 330 422 c 0
 385 468 431 501 467 522 c 1
 382 568 283 646 171 755 c 0
 120 805 94 839 94 859 c 128
 94 897 126 928 163 928 c 128
 181 928 206 920 238 904 c 128
 315 866 394 809 465 756 c 128
 530 707 692 571 692 522 c 0
 692 495 654 445 577 372 c 0
 512 310 447 257 383 213 c 0
 270 135 201 96 175 96 c 128
EndSplineSet
EndChar

StartChar: fraction
Encoding: 340 8260 225
Width: 816
Flags: HMW
LayerCount: 2
Fore
SplineSet
52 11 m 128
 15 11 -16 30 -16 65 c 128
 -16 81 -11 96 -2 111 c 2
 717 1281 l 2
 736 1312 756 1327 777 1327 c 0
 822 1327 844 1309 844 1272 c 0
 844 1255 838 1238 827 1220 c 2
 108 50 l 2
 91 24 73 11 52 11 c 128
EndSplineSet
EndChar

StartChar: Euro
Encoding: 342 8364 226
Width: 1665
Flags: HMW
LayerCount: 2
Fore
SplineSet
68 773 m 2
 34 773 4 803 4 837 c 256
 4 871 34 901 68 901 c 2
 868 901 l 2
 902 901 932 871 932 837 c 256
 932 803 902 773 868 773 c 2
 68 773 l 2
68 503 m 2
 34 503 4 533 4 567 c 256
 4 601 34 631 68 631 c 2
 868 631 l 2
 902 631 932 601 932 567 c 256
 932 533 902 503 868 503 c 2
 68 503 l 2
1590 372 m 128
 1624 372 1649 354 1649 319 c 128
 1649 309 1645 295 1638 279 c 1
 1639 279 l 1
 1585 183 1496 107 1373 51 c 0
 1258 -2 1138 -28 1012 -28 c 0
 619 -28 299 168 201 484 c 0
 182 546 172 611 172 676 c 128
 172 905 263 1067 383 1185 c 128
 525 1325 746 1413 1013 1413 c 0
 1230 1413 1466 1352 1550 1216 c 0
 1568 1187 1577 1158 1577 1131 c 128
 1577 1031 1505 987 1410 987 c 0
 1378 987 1352 990 1332 997 c 1
 1318 1203 1218 1305 1004 1305 c 128
 800 1305 648 1234 550 1128 c 0
 451 1022 402 891 402 735 c 0
 402 563 459 421 572 309 c 0
 691 190 849 131 1047 131 c 0
 1211 131 1347 175 1454 262 c 0
 1506 304 1539 332 1555 348 c 128
 1571 364 1582 372 1590 372 c 128
EndSplineSet
EndChar

StartChar: trademark
Encoding: 343 8482 227
Width: 2050
Flags: HMW
LayerCount: 2
Fore
SplineSet
954 1302 m 2
 954 1333 854 1321 854 1351 c 0
 854 1387 895 1405 977 1405 c 0
 1041 1405 1065 1392 1085 1356 c 2
 1399 791 l 1
 1456 893 1525 1000 1586 1102 c 128
 1615 1150 1653 1214 1700 1293 c 1
 1700 1292 l 1
 1725 1334 1748 1404 1808 1404 c 2
 1851 1404 l 2
 1924 1404 1960 1386 1960 1351 c 0
 1960 1321 1858 1334 1858 1302 c 2
 1858 670 l 2
 1858 633 1960 656 1960 622 c 0
 1960 585 1921 567 1842 567 c 1
 1795 569 l 257
 1746 567 l 1
 1668 567 1629 585 1629 622 c 0
 1629 653 1728 635 1728 670 c 2
 1728 1201 l 1
 1660 1078 1584 938 1513 816 c 0
 1458 722 1420 670 1400 660 c 0
 1393 657 1384 655 1372 655 c 128
 1345 655 1330 691 1319 710 c 2
 1059 1138 l 1
 1059 670 l 2
 1059 634 1162 653 1162 622 c 0
 1162 586 1125 568 1051 568 c 1
 1008 569 l 1
 962 567 l 1
 890 567 854 585 854 622 c 0
 854 658 954 632 954 670 c 2
 954 1302 l 2
247 622 m 0
 247 653 347 641 347 671 c 2
 347 1330 l 1
 173 1330 l 2
 151 1330 132 1308 118 1264 c 128
 104 1220 87 1197 67 1197 c 0
 36 1197 21 1215 21 1252 c 0
 21 1309 34 1354 60 1385 c 0
 70 1397 83 1404 98 1405 c 1
 178 1406 265 1407 358 1407 c 2
 465 1407 l 2
 559 1407 646 1406 726 1405 c 1
 774 1401 803 1332 803 1252 c 0
 803 1215 788 1197 757 1197 c 0
 693 1197 712 1330 651 1330 c 2
 476 1330 l 1
 476 671 l 2
 476 631 578 657 578 618 c 128
 578 571 514 569 454 569 c 0
 449 569 444 569 439 569 c 128
 418 569 394 568 370 568 c 0
 307 568 247 575 247 622 c 0
EndSplineSet
EndChar

StartChar: fi
Encoding: 344 64257 228
Width: 1376
Flags: HMW
LayerCount: 2
Fore
SplineSet
793 863 m 4
 793 933 901 964 1006 964 c 132
 1081 964 1161 956 1161 888 c 6
 1161 282 l 6
 1161 270 1161 259 1161 249 c 4
 1161 136 1219 146 1296 116 c 132
 1310 111 1316 99 1316 82 c 132
 1316 -10 1192 1 1064 1 c 260
 926 1 815 -6 815 90 c 4
 815 121 949 165 959 182 c 5
 965 199 968 232 968 282 c 6
 968 644 l 6
 968 791 948 802 852 828 c 4
 812 839 793 850 793 863 c 4
681 1456 m 4
 917 1456 1169 1421 1169 1251 c 4
 1169 1170 1125 1129 1036 1129 c 4
 974 1129 933 1185 933 1234 c 132
 933 1261 942 1285 959 1305 c 5
 910 1351 807 1373 692 1373 c 132
 518 1373 387 1291 387 1122 c 4
 387 1073 396 1021 414 964 c 5
 556 964 l 6
 604 964 628 949 628 920 c 4
 628 873 593 836 559 836 c 6
 411 836 l 5
 411 282 l 6
 411 172 447 125 523 125 c 5
 547 118 566 115 566 82 c 132
 566 -1 457 1 356 1 c 132
 321 1 282 -1 244 -1 c 4
 151 -1 68 11 68 90 c 4
 68 120 198 162 209 182 c 5
 215 212 218 245 218 282 c 6
 218 833 l 5
 148 833 l 6
 87 833 73 847 73 906 c 4
 73 945 122 964 220 964 c 5
 216 994 214 1034 214 1082 c 132
 214 1334 425 1456 681 1456 c 4
EndSplineSet
LCarets2: 1 0 
Ligature2: "'liga'" f i
EndChar

StartChar: f_j
Encoding: 347 -1 229
Width: 1332
Flags: HMW
LayerCount: 2
Fore
SplineSet
681 1456 m 0
 917 1456 1169 1421 1169 1251 c 0
 1169 1170 1125 1129 1036 1129 c 0
 974 1129 933 1185 933 1234 c 128
 933 1261 942 1285 959 1305 c 1
 910 1351 807 1373 692 1373 c 128
 518 1373 387 1291 387 1122 c 0
 387 1073 396 1021 414 964 c 1
 556 964 l 2
 604 964 628 949 628 920 c 0
 628 873 593 836 559 836 c 2
 411 836 l 1
 411 282 l 2
 411 172 447 125 523 125 c 1
 547 118 566 115 566 82 c 128
 566 -1 457 1 356 1 c 128
 321 1 282 -1 244 -1 c 0
 151 -1 68 11 68 90 c 0
 68 120 198 162 209 182 c 1
 215 212 218 245 218 282 c 2
 218 833 l 1
 148 833 l 2
 87 833 73 847 73 906 c 0
 73 945 122 964 220 964 c 1
 216 994 214 1034 214 1082 c 128
 214 1334 425 1456 681 1456 c 0
1031 963 m 0
 1118 963 1183 963 1183 888 c 2
 1183 152 l 2
 1183 -123 1114 -242 875 -269 c 0
 872 -270 870 -270 866 -270 c 2
 858 -270 l 2
 793 -270 760 -244 760 -192 c 0
 760 -146 793 -119 858 -112 c 1
 912 -99 953 -85 982 -70 c 128
 1011 -55 1025 -38 1025 -18 c 0
 1025 30 1011 68 1002 113 c 2
 992 162 l 1
 992 728 l 2
 992 788 968 821 920 826 c 0
 876 831 849 828 849 859 c 0
 849 930 956 963 1031 963 c 0
EndSplineSet
LCarets2: 1 0 
Ligature2: "'liga'" f j
EndChar

StartChar: fl
Encoding: 345 64258 230
Width: 1403
Flags: HMW
LayerCount: 2
Fore
SplineSet
92 84 m 0
 92 156 220 97 220 191 c 2
 220 833 l 1
 150 833 l 2
 114 833 90 862 90 896 c 0
 90 960 116 962 170 962 c 2
 220 962 l 1
 220 1109 l 2
 220 1336 430 1459 759 1459 c 0
 982 1459 1202 1427 1202 1318 c 6
 1202 1221 l 5
 1202 191 l 6
 1202 98 1331 157 1331 78 c 4
 1331 1 1236 0 1145 0 c 4
 1117 0 1088 -1 1059 -1 c 4
 968 -1 883 8 883 84 c 4
 883 156 1011 97 1011 191 c 6
 1011 1271 l 6
 1011 1339 901 1348 713 1348 c 0
 482 1348 366 1289 366 1170 c 0
 366 1090 381 1021 410 962 c 1
 556 962 l 2
 604 962 628 948 628 920 c 0
 628 873 592 836 558 836 c 2
 410 836 l 1
 410 191 l 2
 410 98 540 157 540 78 c 0
 540 1 425 0 314 0 c 0
 213 0 92 -7 92 84 c 0
EndSplineSet
LCarets2: 1 0 
Ligature2: "'liga'" f l
EndChar

StartChar: s.alt
Encoding: 348 -1 231
Width: 984
Flags: HMW
LayerCount: 2
Fore
SplineSet
62 196 m 128
 62 263 100 297 163 297 c 128
 276 297 273 201 328 144 c 128
 359 113 416 91 480 91 c 128
 600 91 724 112 724 219 c 0
 724 285 657 340 522 386 c 0
 410 424 333 452 291 470 c 128
 249 488 213 508 183 530 c 0
 116 579 83 640 83 712 c 0
 83 830 160 911 314 955 c 0
 371 971 419 979 461 979 c 128
 597 979 711 968 797 916 c 0
 846 886 871 848 871 802 c 0
 871 772 864 751 850 739 c 0
 827 719 806 710 787 710 c 128
 728 710 683 732 669 773 c 128
 647 838 586 876 502 876 c 128
 396 876 270 846 270 756 c 0
 270 713 304 675 372 642 c 0
 514 574 701 541 820 450 c 0
 888 398 922 333 922 256 c 0
 922 135 843 51 685 4 c 0
 622 -15 557 -24 492 -24 c 0
 437 -24 380 -18 323 -4 c 0
 215 22 139 63 94 121 c 0
 72 149 62 174 62 196 c 128
EndSplineSet
EndChar

StartChar: foursuperior
Encoding: 341 8308 232
Width: 759
Flags: HMW
LayerCount: 2
Fore
SplineSet
127 291 m 2
 84 291 33 316 33 357 c 128
 33 406 59 438 82 476 c 128
 153 594 237 716 315 828 c 0
 359 891 387 932 398 950 c 1
 466 950 508 942 523 926 c 128
 555 893 558 854 558 788 c 2
 558 407 l 1
 580 409 600 410 618 410 c 0
 687 410 721 391 721 353 c 0
 721 311 689 290 624 290 c 1
 558 293 l 1
 558 124 l 1
 584 107 656 106 656 70 c 0
 656 23 612 0 523 0 c 2
 431 0 l 2
 341 0 296 23 296 70 c 0
 296 88 321 103 370 115 c 0
 381 118 390 121 396 124 c 1
 396 291 l 1
 127 291 l 2
396 405 m 1
 396 528 402 648 402 771 c 1
 333 648 263 529 195 405 c 1
 396 405 l 1
EndSplineSet
EndChar

StartChar: dotaccentcmb
Encoding: 322 775 261
Width: 461
Flags: HMW
LayerCount: 2
Fore
SplineSet
228 464 m 128
 301 464 380 418 380 359 c 128
 380 290 340 257 289 240 c 128
 272 234 256 231 240 231 c 128
 167 231 99 278 99 343 c 256
 99 377 114 406 146 430 c 0
 176 452 203 464 228 464 c 128
EndSplineSet
EndChar

StartChar: uni0311
Encoding: 324 785 262
Width: 994
Flags: HMW
LayerCount: 2
Fore
SplineSet
93 60 m 1
 98 289 258 417 498 417 c 0
 742 417 906 291 911 60 c 1
 778 60 l 1
 767 177 640 238 502 238 c 256
 394 238 313 208 261 148 c 0
 241 125 229 95 226 60 c 1
 93 60 l 1
EndSplineSet
EndChar

StartChar: uni030F
Encoding: 323 783 263
Width: 861
Flags: HMW
LayerCount: 2
Fore
SplineSet
34 1603 m 128
 34 1665 94 1704 154 1704 c 128
 217 1704 268 1656 283 1611 c 128
 321 1500 358 1373 390 1254 c 0
 408 1186 419 1143 420 1125 c 1
 420 1120 l 1
 406 1106 l 1
 376 1118 306 1195 197 1335 c 0
 126 1427 81 1491 62 1528 c 128
 43 1565 34 1590 34 1603 c 128
365 1603 m 128
 365 1665 425 1704 485 1704 c 128
 548 1704 599 1656 614 1611 c 128
 652 1500 690 1373 722 1254 c 0
 740 1186 750 1143 751 1125 c 1
 751 1120 l 1
 737 1106 l 1
 707 1118 637 1195 528 1335 c 0
 457 1427 412 1491 393 1528 c 128
 374 1565 365 1590 365 1603 c 128
EndSplineSet
EndChar

StartChar: uni0326
Encoding: 325 806 264
Width: 459
Flags: HMW
LayerCount: 2
Fore
SplineSet
375 99 m 1
 375 -18 291 -120 178 -120 c 0
 152 -120 139 -112 139 -97 c 0
 139 -77 160 -66 172 -54 c 0
 195 -32 206 -5 207 27 c 1
 144 30 90 55 90 118 c 128
 90 191 166 225 236 225 c 0
 320 225 367 183 375 99 c 1
EndSplineSet
EndChar

StartChar: quotedbl
Encoding: 4 34 265
Width: 791
Flags: HMW
LayerCount: 2
Fore
SplineSet
90 1323 m 1
 90 1393 124 1450 195 1450 c 256
 264 1450 301 1389 301 1331 c 1
 231 889 l 1
 229 866 216 841 194 841 c 0
 174 841 163 856 160 885 c 1
 90 1323 l 1
490 1323 m 1
 490 1393 524 1450 595 1450 c 256
 664 1450 701 1389 701 1331 c 1
 631 889 l 1
 629 866 616 841 594 841 c 0
 574 841 563 856 560 885 c 1
 490 1323 l 1
EndSplineSet
EndChar

StartChar: exclam
Encoding: 3 33 266
Width: 511
Flags: HMW
LayerCount: 2
Fore
SplineSet
260 -9 m 4
 179 -9 139 51 139 110 c 4
 139 167 176 223 251 223 c 132
 335 223 373 167 373 110 c 4
 373 51 332 -9 260 -9 c 4
378 1144 m 2
 301 557 l 1
 295 502 293 443 257 443 c 128
 223 443 223 502 217 557 c 1
 140 1144 l 2
 139 1157 138 1170 138 1182 c 0
 138 1280 198 1330 259 1330 c 0
 319 1330 380 1280 380 1182 c 0
 380 1170 380 1157 378 1144 c 2
EndSplineSet
EndChar

StartChar: dotlessj
Encoding: 349 567 349
Width: 476
Flags: HMW
LayerCount: 2
Fore
SplineSet
187 963 m 128
 274 963 339 963 339 888 c 2
 339 152 l 2
 339 -123 270 -242 31 -269 c 0
 28 -270 26 -270 22 -270 c 2
 14 -270 l 2
 -51 -270 -84 -244 -84 -192 c 0
 -84 -146 -51 -119 14 -112 c 1
 68 -99 109 -85 138 -70 c 128
 167 -55 181 -38 181 -18 c 128
 181 30 167 68 158 113 c 2
 148 162 l 1
 148 728 l 2
 148 788 124 821 76 826 c 0
 32 831 5 828 5 859 c 0
 5 930 112 963 187 963 c 128
EndSplineSet
EndChar

StartChar: c_k
Encoding: 350 -1 350
Width: 2279
Flags: HW
LayerCount: 2
Fore
SplineSet
981 84 m 0
 981 156 1110 97 1110 191 c 2
 1110 1292 l 2
 1110 1316 989 1355 898 1355 c 0
 694 1355 607 1265 607 1176 c 0
 607 1082 657 1003 726 956 c 1
 819 892 942 856 942 737 c 0
 942 675 882 630 817 630 c 0
 781 630 755 633 740 639 c 1
 732 776 693 873 561 873 c 0
 353 873 236 725 236 526 c 0
 236 296 398 109 625 109 c 0
 674 109 735 132 808 179 c 0
 829 190 847 195 862 195 c 0
 890 195 908 179 908 153 c 0
 908 141 905 127 894 115 c 0
 817 19 702 -27 553 -27 c 0
 249 -27 32 166 32 465 c 0
 32 712 192 959 521 959 c 0
 541 959 561 959 582 957 c 1
 488 1033 447 1122 447 1210 c 0
 447 1373 644 1529 902 1529 c 0
 1088 1529 1274 1415 1301 1267 c 1
 1301 532 l 1
 1421 622 1558 717 1676 810 c 0
 1718 843 1739 862 1739 868 c 0
 1739 884 1714 899 1663 915 c 1
 1665 976 1721 1006 1831 1006 c 2
 1967 1006 l 2
 2135 1006 2219 997 2219 978 c 0
 2219 960 2171 913 2132 891 c 1
 2039 891 1924 822 1770 708 c 2
 1597 580 l 1
 1912 248 l 1
 1978 180 2029 134 2131 109 c 0
 2187 95 2248 91 2248 38 c 0
 2248 6 2196 -10 2093 -10 c 2
 2044 -10 l 2
 1924 -10 1895 -8 1839 45 c 0
 1715 162 1562 369 1470 501 c 1
 1300 386 l 1
 1300 191 l 2
 1300 98 1429 157 1429 78 c 0
 1429 1 1334 0 1243 0 c 0
 1215 0 1186 -1 1157 -1 c 0
 1066 -1 981 8 981 84 c 0
EndSplineSet
LCarets2: 1 0 
Ligature2: "'liga'" c k
EndChar

StartChar: f_u
Encoding: 351 -1 351
Width: 1908
Flags: HW
LayerCount: 2
Fore
SplineSet
90 84 m 0
 90 156 220 97 220 191 c 2
 220 833 l 1
 150 833 l 2
 114 833 88 862 88 896 c 0
 88 960 114 962 168 962 c 2
 220 962 l 1
 220 1109 l 2
 220 1336 367 1459 598 1459 c 0
 721 1459 844 1427 844 1318 c 0
 844 1237 802 1196 720 1196 c 0
 649 1196 614 1237 614 1318 c 2
 614 1332 l 1
 588 1343 561 1348 536 1348 c 0
 422 1348 366 1289 366 1170 c 0
 366 1090 381 1021 410 962 c 1
 834 962 l 6
 951 962 983 950 983 838 c 6
 983 433 l 6
 983 212 1027 109 1230 109 c 4
 1438 109 1510 196 1510 411 c 6
 1510 749 l 6
 1510 799 1486 825 1438 828 c 4
 1396 830 1367 830 1367 862 c 4
 1367 935 1474 964 1552 964 c 4
 1669 964 1702 952 1702 838 c 6
 1703 198 l 6
 1703 152 1728 128 1776 125 c 4
 1823 122 1848 124 1848 86 c 4
 1848 13 1731 -11 1659 -11 c 4
 1533 -11 1522 17 1522 149 c 5
 1448 41 1325 -27 1152 -27 c 4
 881 -27 790 122 790 406 c 6
 790 749 l 6
 790 844 719 836 662 836 c 6
 410 836 l 1
 410 191 l 2
 410 98 538 157 538 78 c 0
 538 1 423 0 312 0 c 0
 211 0 90 -7 90 84 c 0
EndSplineSet
Ligature2: "'liga'" f u
EndChar

StartChar: ffl
Encoding: 352 64260 352
Width: 1692
Flags: HW
LayerCount: 2
Back
SplineSet
797 962 m 6
 797 962 530.333333333 962 397 962 c 5
 368 1021 353 1090 353 1170 c 4
 353 1296.7723361 465.02868452 1347.09428719 587.883820059 1347.09428719 c 4
 674.89209071 1347.09428719 756.5 1308.76611328 829.25 1280.65429688 c 4
 870.701195363 1264.63686191 883.423708387 1311.09295992 900.434570312 1369.62597656 c 5
 774.470337617 1458.31633593 661.709258871 1494.53217888 565.55611535 1494.53217888 c 4
 340.978912088 1494.53217888 207 1296.9703845 207 1109 c 6
 207 962 l 5
 184 962 l 6
 111 962 76 960 76 896 c 4
 76 862 101 833 137 833 c 6
 207 833 l 5
 207 191 l 6
 207 97 78 156 78 84 c 4
 78 8 163 -1 254 -1 c 4
 283 -1 312 0 340 0 c 4
 431 0 526 1 526 78 c 4
 526 157 397 98 397 191 c 6
 397 836 l 5
 797 836 l 5
 797 962 l 6
EndSplineSet
Fore
SplineSet
623 84 m 0
 623 156 751 97 751 191 c 2
 751 836 l 1
 389 836 l 1
 389 191 l 2
 389 98 518 157 518 78 c 0
 518 1 423 0 332 0 c 0
 304 0 275 -1 246 -1 c 0
 155 -1 70 8 70 84 c 0
 70 156 199 97 199 191 c 2
 199 833 l 1
 129 833 l 2
 93 833 68 862 68 896 c 0
 68 960 103 962 176 962 c 2
 199 962 l 1
 199 1109 l 2
 199 1296.97070312 355.3984375 1494.53222656 617.555664062 1494.53222656 c 0
 701.344726562 1494.53222656 797.745117188 1467.03125 904.502929688 1401.27148438 c 1
 969.397460938 1439.35253906 1052.66308594 1459 1150 1459 c 0
 1347.83105469 1459 1543 1427 1543 1318 c 6
 1543 1221 l 5
 1543 191 l 6
 1543 98 1672 157 1672 78 c 4
 1672 1 1577 0 1486 0 c 4
 1458 0 1429 -1 1400 -1 c 4
 1309 -1 1224 8 1224 84 c 4
 1224 156 1352 97 1352 191 c 6
 1352 1271 l 6
 1352 1339 1275.22167969 1348 1144 1348 c 0
 956.814453125 1348 898.411132812 1255.20996094 898.411132812 1150.80664062 c 0
 898.411132812 1085.84863281 917.336914062 1016.39648438 941 962 c 1
 1087 962 l 2
 1135 962 1159 948 1159 920 c 0
 1159 873 1123 836 1089 836 c 2
 941 836 l 1
 941 191 l 2
 941 98 1071 157 1071 78 c 0
 1071 1 956 0 845 0 c 0
 831.533203125 0 817.7109375 -0.1240234375 803.8671875 -0.1240234375 c 0
 713.884765625 -0.1240234375 623 5.1337890625 623 84 c 0
751 962 m 1
 751 1109 l 2
 751 1189.33691406 770.470703125 1256.64746094 806.42578125 1310.08984375 c 1
 754.028320312 1329.89550781 698.16796875 1347.09472656 639.883789062 1347.09472656 c 0
 485.645507812 1347.09472656 345 1296.77246094 345 1170 c 0
 345 1090 360 1021 389 962 c 1
 751 962 l 1
EndSplineSet
LCarets2: 2 0 0 
Ligature2: "'liga'" f f l
EndChar

StartChar: ff
Encoding: 353 64256 353
Width: 1319
Flags: HW
LayerCount: 2
Back
SplineSet
798 84 m 4
 798 156 927 97 927 191 c 6
 927 833 l 5
 857 833 l 6
 821 833 796 862 796 896 c 132
 796 960 822 962 876 962 c 6
 927 962 l 5
 927 1109 l 6
 927 1336 1075 1459 1306 1459 c 4
 1429 1459 1551 1427 1551 1318 c 4
 1551 1237 1510 1196 1428 1196 c 4
 1357 1196 1321 1237 1321 1318 c 6
 1321 1332 l 5
 1295 1343 1269 1348 1244 1348 c 4
 1130 1348 1073 1289 1073 1170 c 4
 1073 1090 1088 1021 1117 962 c 5
 1262 962 l 6
 1310 962 1334 948 1334 920 c 4
 1334 873 1299 836 1265 836 c 6
 1117 836 l 5
 1117 191 l 6
 1117 98 1246 157 1246 78 c 132
 1246 1 1131 0 1020 0 c 132
 919 0 798 -7 798 84 c 4
EndSplineSet
Fore
SplineSet
668 84 m 4
 668 156 797 97 797 191 c 6
 797 836 l 5
 397 836 l 5
 397 191 l 6
 397 98 526 157 526 78 c 4
 526 1 431 0 340 0 c 4
 312 0 283 -1 254 -1 c 4
 163 -1 78 8 78 84 c 4
 78 156 207 97 207 191 c 6
 207 833 l 5
 137 833 l 6
 101 833 76 862 76 896 c 4
 76 960 111 962 184 962 c 6
 207 962 l 5
 207 1109 l 6
 207 1296.9703845 340.978912088 1494.53217888 565.55611535 1494.53217888 c 4
 661.709258871 1494.53217888 774.470337617 1458.31633593 900.434570312 1369.62597656 c 5
 966.285996475 1428.42368859 1060.82657176 1459 1176 1459 c 4
 1299 1459 1421 1427 1421 1318 c 4
 1421 1237 1380 1196 1298 1196 c 4
 1227 1196 1191 1237 1191 1318 c 6
 1191 1332 l 5
 1165 1343 1139 1348 1114 1348 c 4
 1000 1348 943 1289 943 1170 c 4
 943 1090 958 1021 987 962 c 5
 1132 962 l 6
 1180 962 1204 948 1204 920 c 4
 1204 873 1169 836 1135 836 c 6
 987 836 l 5
 987 191 l 6
 987 98 1116 157 1116 78 c 4
 1116 1 1001 0 890 0 c 4
 876.533333333 0 862.711111111 -0.124444444444 848.867555556 -0.124444444444 c 4
 758.884444444 -0.124444444444 668 5.13333333333 668 84 c 4
829.25 1280.65527344 m 5
 767.330620539 1321.8541382 674.89209071 1347.09428719 587.883820059 1347.09428719 c 4
 465.02868452 1347.09428719 353 1296.7723361 353 1170 c 4
 353 1090 368 1021 397 962 c 5
 530.333333333 962 663.666666667 962 797 962 c 5
 797 1109 l 6
 797 1172.9855349 808.120676687 1230.29650495 829.25 1280.65527344 c 5
EndSplineSet
LCarets2: 1 0 
Ligature2: "'liga'" f f
EndChar
